<?xml version="1.0"?>
<svg xmlns="http://www.w3.org/2000/svg" xmlns:xlink="http://www.w3.org/1999/xlink" xmlns:svgjs="http://svgjs.com/svgjs" version="1.1" width="512" height="512" x="0" y="0" viewBox="0 0 512.001 512.001" style="enable-background:new 0 0 512 512" xml:space="preserve" class=""><g>
<g xmlns="http://www.w3.org/2000/svg">
	<g>
		<g>
			<path d="M70.081,226.273c-1.025-3.254-5.211-4.838-9.491-4.838c-4.278,0-8.466,1.584-9.489,4.838l-17.303,56.752     c-0.094,0.369-0.188,0.744-0.188,1.025c0,3.441,5.302,5.953,9.304,5.953c2.325,0,4.187-0.746,4.745-2.699l3.163-11.629h19.629     l3.163,11.629c0.561,1.953,2.42,2.699,4.745,2.699c4.002,0,9.304-2.512,9.304-5.953c0-0.281-0.092-0.656-0.186-1.025     L70.081,226.273z M53.799,264.51l6.791-24.936l6.794,24.936H53.799z" fill="#3c5a72" data-original="#000000" style="" class=""/>
			<path d="M176.438,221.994H157.18c-3.256,0-5.396,2.047-5.396,4.373v59.168c0,2.979,3.63,4.469,7.258,4.469     c3.627,0,7.257-1.49,7.257-4.469v-20.092h9.21c12.838,0,22.887-5.957,22.887-21.586v-0.465     C198.395,227.763,188.72,221.994,176.438,221.994z M183.882,244.969c0,6.328-3.162,9.307-8.373,9.307h-9.21v-19.629h9.21     c5.211,0,8.373,2.975,8.373,9.301V244.969z" fill="#3c5a72" data-original="#000000" style="" class=""/>
			<path d="M362.073,221.994c-2.325,0-4.185,0.744-4.744,2.697l-12.932,47.725l-13.025-47.725c-0.557-1.953-2.418-2.697-4.744-2.697     c-4,0-9.304,2.51-9.304,5.953c0,0.279,0.094,0.65,0.188,1.025l17.397,56.75c1.023,3.256,5.21,4.838,9.488,4.838     c4.281,0,8.466-1.582,9.489-4.838l17.306-56.75c0.094-0.375,0.186-0.746,0.186-1.025     C371.378,224.503,366.075,221.994,362.073,221.994z" fill="#3c5a72" data-original="#000000" style="" class=""/>
			<path d="M120.61,221.994h-19.262c-3.254,0-5.393,2.047-5.393,4.373v59.168c0,2.979,3.627,4.469,7.255,4.469     c3.63,0,7.257-1.49,7.257-4.469v-20.092h9.211c12.838,0,22.886-5.957,22.886-21.586v-0.465     C142.564,227.763,132.888,221.994,120.61,221.994z M128.05,244.969c0,6.328-3.161,9.307-8.371,9.307h-9.211v-19.629h9.211     c5.21,0,8.371,2.975,8.371,9.301V244.969z" fill="#3c5a72" data-original="#000000" style="" class=""/>
			<path d="M455.502,221.994h-16.468c-3.814,0-6.326,2.047-6.326,4.373v59.262c0,2.328,2.512,4.375,6.326,4.375h16.468     c12.838,0,22.886-5.953,22.886-21.957v-24.098C478.388,227.947,468.34,221.994,455.502,221.994z M463.876,268.045     c0,6.328-3.166,9.303-8.374,9.303h-8.28v-42.701h8.28c5.208,0,8.374,2.975,8.374,9.301V268.045z" fill="#3c5a72" data-original="#000000" style="" class=""/>
			<path d="M419.115,234.648L419.115,234.648c2.791-0.001,4.372-2.98,4.372-6.423c0-2.979-1.303-6.232-4.372-6.232h-33.12     c-3.164,0-6.327,1.488-6.327,4.463v59.078c0,2.979,3.163,4.469,6.327,4.469h33.12c3.069,0,4.372-3.256,4.372-6.234     c0-3.441-1.581-6.42-4.372-6.42h-24.933v-15.816h13.954c3.07,0,4.372-2.975,4.372-5.49c0-2.975-1.58-5.672-4.372-5.672h-13.954     v-15.723H419.115z" fill="#3c5a72" data-original="#000000" style="" class=""/>
			<path d="M286.893,221.994c-12.84,0-22.795,5.953-22.795,21.955v24.654c0,16.004,9.955,21.957,22.795,21.957     c12.837,0,22.886-5.953,22.886-21.957v-24.654C309.778,227.947,299.729,221.994,286.893,221.994z M295.265,268.602     c0,6.422-3.162,9.303-8.372,9.303c-5.21,0-8.28-2.881-8.28-9.303v-24.654c0-6.42,3.07-9.301,8.28-9.301     c5.21,0,8.372,2.881,8.372,9.301V268.602z" fill="#3c5a72" data-original="#000000" style="" class=""/>
			<path d="M242.97,260.786c6.512-2.51,11.256-8.463,11.256-18.883c0-15.166-10.142-19.91-22.886-19.91h-19.259     c-2.697,0-4.465,2.047-4.465,4.373v59.168c0,2.979,3.629,4.469,7.257,4.469c3.628,0,7.257-1.49,7.257-4.469v-22.42h6.141     l12.746,24.748c1.021,1.953,2.789,2.697,4.65,2.697c4.281,0,9.117-3.906,9.117-7.535c0-0.465-0.092-1.115-0.465-1.678     L242.97,260.786z M231.34,251.948h-9.21v-17.301h9.21c5.21,0,8.372,2.141,8.372,8.65     C239.712,249.807,236.55,251.948,231.34,251.948z" fill="#3c5a72" data-original="#000000" style="" class=""/>
			<path d="M486.872,160.867h-15.924c-17.712-40.002-46.088-74.123-82.41-98.975c-39.124-26.77-84.955-40.918-132.537-40.918     c-47.584,0-93.414,14.148-132.539,40.918c-36.321,24.852-64.697,58.973-82.409,98.975H25.128C11.272,160.867,0,172.138,0,185.995     v140.006c0,13.857,11.272,25.129,25.128,25.129h15.923c17.712,40.002,46.088,74.125,82.409,98.977     c39.125,26.77,84.957,40.92,132.541,40.92c47.583,0,93.414-14.15,132.539-40.92c36.32-24.852,64.695-58.975,82.408-98.977h15.924     c13.855,0,25.129-11.271,25.129-25.129V185.995C512.001,172.138,500.727,160.867,486.872,160.867z M256.001,40.974     c82.654,0,156.801,46.584,192.881,119.893h-70.489c-29.28-37.596-74.644-59.896-122.392-59.896     c-47.748,0-93.111,22.301-122.395,59.896H109.09c32.07-49.664,86.935-79.895,146.91-79.895c21.412,0,42.406,3.869,62.396,11.502     c5.162,1.967,10.939-0.617,12.908-5.777c1.97-5.158-0.616-10.939-5.775-12.908c-22.276-8.504-45.67-12.816-69.529-12.816     c-35.752,0-70.794,9.818-101.34,28.395c-28.789,17.51-52.502,42.148-68.903,71.5H63.119     C99.198,87.557,173.345,40.974,256.001,40.974z M351.774,160.867h-191.55c25.17-25.266,59.692-39.896,95.776-39.896     S326.606,135.601,351.774,160.867z M256.001,471.026c-82.656,0-156.803-46.586-192.884-119.897h70.489     c29.28,37.596,74.645,59.895,122.395,59.895c47.748,0,93.113-22.299,122.393-59.895h24.515     c-32.07,49.664-86.935,79.895-146.908,79.895c-21.411,0-42.405-3.869-62.399-11.502c-5.16-1.967-10.939,0.617-12.909,5.777     c-1.969,5.16,0.617,10.939,5.777,12.908c22.279,8.504,45.674,12.816,69.531,12.816c35.75,0,70.791-9.82,101.338-28.396     c28.789-17.508,52.502-42.146,68.904-71.498h22.639C412.801,424.44,338.655,471.026,256.001,471.026z M160.224,351.13h191.554     c-25.169,25.266-59.69,39.895-95.776,39.895C219.914,391.024,185.393,376.396,160.224,351.13z M492.001,326.002     c0,2.781-2.349,5.129-5.129,5.129H25.128c-2.779,0-5.128-2.348-5.128-5.129V185.995c0-2.781,2.349-5.129,5.128-5.129h461.744     c2.78,0,5.129,2.348,5.129,5.129V326.002z" fill="#3c5a72" data-original="#000000" style="" class=""/>
			<path d="M343.211,104.245l0.428,0.244c1.544,0.863,3.217,1.271,4.868,1.271c3.505,0,6.908-1.846,8.738-5.125     c2.694-4.82,0.969-10.912-3.853-13.608l-0.085-0.047c-4.768-2.791-10.893-1.186-13.681,3.584     C336.839,95.333,338.444,101.458,343.211,104.245z" fill="#3c5a72" data-original="#000000" style="" class=""/>
			<path d="M168.703,407.701l-0.257-0.147c-4.795-2.74-10.903-1.074-13.644,3.721c-2.739,4.795-1.073,10.904,3.722,13.645     l0.256,0.146c1.565,0.895,3.27,1.318,4.952,1.318c3.472,0,6.847-1.81,8.692-5.041     C175.164,416.547,173.498,410.44,168.703,407.701z" fill="#3c5a72" data-original="#000000" style="" class=""/>
		</g>
	</g>
</g>
<g xmlns="http://www.w3.org/2000/svg">
</g>
<g xmlns="http://www.w3.org/2000/svg">
</g>
<g xmlns="http://www.w3.org/2000/svg">
</g>
<g xmlns="http://www.w3.org/2000/svg">
</g>
<g xmlns="http://www.w3.org/2000/svg">
</g>
<g xmlns="http://www.w3.org/2000/svg">
</g>
<g xmlns="http://www.w3.org/2000/svg">
</g>
<g xmlns="http://www.w3.org/2000/svg">
</g>
<g xmlns="http://www.w3.org/2000/svg">
</g>
<g xmlns="http://www.w3.org/2000/svg">
</g>
<g xmlns="http://www.w3.org/2000/svg">
</g>
<g xmlns="http://www.w3.org/2000/svg">
</g>
<g xmlns="http://www.w3.org/2000/svg">
</g>
<g xmlns="http://www.w3.org/2000/svg">
</g>
<g xmlns="http://www.w3.org/2000/svg">
</g>
</g></svg>
