<?xml version="1.0"?>
<svg xmlns="http://www.w3.org/2000/svg" xmlns:xlink="http://www.w3.org/1999/xlink" xmlns:svgjs="http://svgjs.com/svgjs" version="1.1" width="512" height="512" x="0" y="0" viewBox="0 0 480 480" style="enable-background:new 0 0 512 512" xml:space="preserve" class=""><g>
<g xmlns="http://www.w3.org/2000/svg">
	<g>
		<path d="M472,0H184c-4.418,0-8,3.582-8,8v72H8c-4.418,0-8,3.582-8,8v384c0,4.418,3.582,8,8,8h288c4.418,0,8-3.582,8-8v-72h168    c4.418,0,8-3.582,8-8V8C480,3.582,476.418,0,472,0z M192,23.544L271.032,80H192V23.544z M288,464H16V96h272V464z M464,384H304V88    c-0.029-2.566-1.31-4.956-3.432-6.4l0.08-0.12L208.968,16H464V384z" fill="#3c5a72" data-original="#000000" style="" class=""/>
	</g>
</g>
<g xmlns="http://www.w3.org/2000/svg">
	<g>
		<path d="M432,40h-96c-4.418,0-8,3.582-8,8v48c0,4.418,3.582,8,8,8h96c4.418,0,8-3.582,8-8V48C440,43.582,436.418,40,432,40z     M424,88h-80V56h80V88z" fill="#3c5a72" data-original="#000000" style="" class=""/>
	</g>
</g>
<g xmlns="http://www.w3.org/2000/svg">
	<g>
		<rect x="328" y="120" width="16" height="16" fill="#3c5a72" data-original="#000000" style="" class=""/>
	</g>
</g>
<g xmlns="http://www.w3.org/2000/svg">
	<g>
		<rect x="360" y="120" width="80" height="16" fill="#3c5a72" data-original="#000000" style="" class=""/>
	</g>
</g>
<g xmlns="http://www.w3.org/2000/svg">
	<g>
		<rect x="328" y="152" width="112" height="16" fill="#3c5a72" data-original="#000000" style="" class=""/>
	</g>
</g>
<g xmlns="http://www.w3.org/2000/svg">
	<g>
		<rect x="328" y="184" width="112" height="16" fill="#3c5a72" data-original="#000000" style="" class=""/>
	</g>
</g>
<g xmlns="http://www.w3.org/2000/svg">
	<g>
		<path d="M432,232h-96c-4.418,0-8,3.582-8,8v48c0,4.418,3.582,8,8,8h96c4.418,0,8-3.582,8-8v-48C440,235.582,436.418,232,432,232z     M424,280h-80v-32h80V280z" fill="#3c5a72" data-original="#000000" style="" class=""/>
	</g>
</g>
<g xmlns="http://www.w3.org/2000/svg">
	<g>
		<rect x="328" y="312" width="16" height="16" fill="#3c5a72" data-original="#000000" style="" class=""/>
	</g>
</g>
<g xmlns="http://www.w3.org/2000/svg">
	<g>
		<rect x="360" y="312" width="80" height="16" fill="#3c5a72" data-original="#000000" style="" class=""/>
	</g>
</g>
<g xmlns="http://www.w3.org/2000/svg">
	<g>
		<rect x="328" y="344" width="112" height="16" fill="#3c5a72" data-original="#000000" style="" class=""/>
	</g>
</g>
<g xmlns="http://www.w3.org/2000/svg">
	<g>
		<path d="M112,360H48c-4.418,0-8,3.582-8,8v64c0,4.418,3.582,8,8,8h64c4.418,0,8-3.582,8-8v-64C120,363.582,116.418,360,112,360z     M104,424H56v-48h48V424z" fill="#3c5a72" data-original="#000000" style="" class=""/>
	</g>
</g>
<g xmlns="http://www.w3.org/2000/svg">
	<g>
		<rect x="136" y="360" width="16" height="16" fill="#3c5a72" data-original="#000000" style="" class=""/>
	</g>
</g>
<g xmlns="http://www.w3.org/2000/svg">
	<g>
		<rect x="168" y="360" width="96" height="16" fill="#3c5a72" data-original="#000000" style="" class=""/>
	</g>
</g>
<g xmlns="http://www.w3.org/2000/svg">
	<g>
		<rect x="136" y="392" width="128" height="16" fill="#3c5a72" data-original="#000000" style="" class=""/>
	</g>
</g>
<g xmlns="http://www.w3.org/2000/svg">
	<g>
		<rect x="136" y="424" width="128" height="16" fill="#3c5a72" data-original="#000000" style="" class=""/>
	</g>
</g>
<g xmlns="http://www.w3.org/2000/svg">
	<g>
		<path d="M248,128H56c-4.418,0-8,3.582-8,8v160c0,4.418,3.582,8,8,8h192c4.418,0,8-3.582,8-8V136C256,131.582,252.418,128,248,128z     M240,288H64v-28.32l47.576-40.8l58.768,58.76l11.312-11.312L171.312,256L200,227.312l40,40V288z M240,244.688l-34.344-34.344    c-3.124-3.123-8.188-3.123-11.312,0L160,244.688l-42.344-42.344c-2.955-2.951-7.684-3.132-10.856-0.416L64,238.608V144h176    V244.688z" fill="#3c5a72" data-original="#000000" style="" class=""/>
	</g>
</g>
<g xmlns="http://www.w3.org/2000/svg">
	<g>
		<path d="M160,160c-13.255,0-24,10.745-24,24s10.745,24,24,24s24-10.745,24-24S173.255,160,160,160z M160,192c-4.418,0-8-3.582-8-8    s3.582-8,8-8s8,3.582,8,8S164.418,192,160,192z" fill="#3c5a72" data-original="#000000" style="" class=""/>
	</g>
</g>
<g xmlns="http://www.w3.org/2000/svg">
	<g>
		<rect x="88" y="160" width="16" height="16" fill="#3c5a72" data-original="#000000" style="" class=""/>
	</g>
</g>
<g xmlns="http://www.w3.org/2000/svg">
	<g>
		<rect x="208" y="176" width="16" height="16" fill="#3c5a72" data-original="#000000" style="" class=""/>
	</g>
</g>
<g xmlns="http://www.w3.org/2000/svg">
</g>
<g xmlns="http://www.w3.org/2000/svg">
</g>
<g xmlns="http://www.w3.org/2000/svg">
</g>
<g xmlns="http://www.w3.org/2000/svg">
</g>
<g xmlns="http://www.w3.org/2000/svg">
</g>
<g xmlns="http://www.w3.org/2000/svg">
</g>
<g xmlns="http://www.w3.org/2000/svg">
</g>
<g xmlns="http://www.w3.org/2000/svg">
</g>
<g xmlns="http://www.w3.org/2000/svg">
</g>
<g xmlns="http://www.w3.org/2000/svg">
</g>
<g xmlns="http://www.w3.org/2000/svg">
</g>
<g xmlns="http://www.w3.org/2000/svg">
</g>
<g xmlns="http://www.w3.org/2000/svg">
</g>
<g xmlns="http://www.w3.org/2000/svg">
</g>
<g xmlns="http://www.w3.org/2000/svg">
</g>
</g></svg>
