<?xml version="1.0"?>
<svg xmlns="http://www.w3.org/2000/svg" xmlns:xlink="http://www.w3.org/1999/xlink" xmlns:svgjs="http://svgjs.com/svgjs" version="1.1" width="512" height="512" x="0" y="0" viewBox="0 0 512 512" style="enable-background:new 0 0 512 512" xml:space="preserve" class=""><g>
<g xmlns="http://www.w3.org/2000/svg">
	<g>
		<path d="M202.802,417.661l-71.255-137.858c-1.817-3.515-5.451-5.67-9.424-5.65c-3.958,0.053-7.546,2.338-9.267,5.902    L46.253,417.914c-1.564,3.238-1.354,7.053,0.557,10.099c1.911,3.046,5.256,4.895,8.851,4.895h137.858    c3.646,0,7.029-1.901,8.925-5.015C204.341,424.777,204.475,420.9,202.802,417.661z M72.314,412.01l50.264-104.043l53.777,104.043    H72.314z" fill="#3c5a72" data-original="#000000" style="" class=""/>
	</g>
</g>
<g xmlns="http://www.w3.org/2000/svg">
	<g>
		<path d="M401.991,297.129H273.299c-5.77,0-10.449,4.678-10.449,10.449s4.679,10.449,10.449,10.449h128.692    c5.77,0,10.449-4.678,10.449-10.449S407.761,297.129,401.991,297.129z" fill="#3c5a72" data-original="#000000" style="" class=""/>
	</g>
</g>
<g xmlns="http://www.w3.org/2000/svg">
	<g>
		<path d="M239.31,297.129h-0.137c-5.77,0-10.449,4.678-10.449,10.449s4.679,10.449,10.449,10.449h0.137    c5.771,0,10.449-4.678,10.449-10.449S245.08,297.129,239.31,297.129z" fill="#3c5a72" data-original="#000000" style="" class=""/>
	</g>
</g>
<g xmlns="http://www.w3.org/2000/svg">
	<g>
		<path d="M401.991,343.081H273.299c-5.77,0-10.449,4.678-10.449,10.449s4.679,10.449,10.449,10.449h128.692    c5.77,0,10.449-4.678,10.449-10.449S407.761,343.081,401.991,343.081z" fill="#3c5a72" data-original="#000000" style="" class=""/>
	</g>
</g>
<g xmlns="http://www.w3.org/2000/svg">
	<g>
		<path d="M239.31,343.081h-0.137c-5.77,0-10.449,4.678-10.449,10.449s4.679,10.449,10.449,10.449h0.137    c5.771,0,10.449-4.678,10.449-10.449S245.08,343.081,239.31,343.081z" fill="#3c5a72" data-original="#000000" style="" class=""/>
	</g>
</g>
<g xmlns="http://www.w3.org/2000/svg">
	<g>
		<path d="M401.991,389.034H273.299c-5.77,0-10.449,4.678-10.449,10.449s4.679,10.449,10.449,10.449h128.692    c5.77,0,10.449-4.678,10.449-10.449S407.761,389.034,401.991,389.034z" fill="#3c5a72" data-original="#000000" style="" class=""/>
	</g>
</g>
<g xmlns="http://www.w3.org/2000/svg">
	<g>
		<path d="M239.31,389.034h-0.137c-5.77,0-10.449,4.678-10.449,10.449s4.679,10.449,10.449,10.449h0.137    c5.771,0,10.449-4.678,10.449-10.449S245.08,389.034,239.31,389.034z" fill="#3c5a72" data-original="#000000" style="" class=""/>
	</g>
</g>
<g xmlns="http://www.w3.org/2000/svg">
	<g>
		<path d="M381.285,214.019h-0.137c-5.77,0-10.449,4.678-10.449,10.449s4.679,10.449,10.449,10.449h0.137    c5.771,0,10.449-4.678,10.449-10.449S387.055,214.019,381.285,214.019z" fill="#3c5a72" data-original="#000000" style="" class=""/>
	</g>
</g>
<g xmlns="http://www.w3.org/2000/svg">
	<g>
		<path d="M279.808,68.628c-4.082-4.08-10.696-4.08-14.778,0l-0.097,0.097c-4.08,4.081-4.08,10.697,0,14.778    c2.041,2.041,4.713,3.06,7.388,3.06s5.348-1.02,7.389-3.06l0.097-0.097C283.889,79.324,283.889,72.708,279.808,68.628z" fill="#3c5a72" data-original="#000000" style="" class=""/>
	</g>
</g>
<g xmlns="http://www.w3.org/2000/svg">
	<g>
		<path d="M508.94,204.539L326.419,22.018c-1.96-1.959-4.617-3.06-7.388-3.06s-5.428,1.101-7.388,3.06l-21.228,21.229    c-4.08,4.08-4.08,10.696,0,14.777c4.081,4.08,10.695,4.08,14.778,0l13.838-13.839l167.743,167.744l-29.122,29.12v-16.58    c0-5.771-4.679-10.449-10.449-10.449h-30.019c-5.77,0-10.449,4.678-10.449,10.449c0,5.771,4.679,10.449,10.449,10.449h19.57    v237.226H20.897V234.919h326.448c5.77,0,10.449-4.678,10.449-10.449c0-5.771-4.679-10.449-10.449-10.449h-36.92l44.401-44.4    c4.08-4.08,4.08-10.696,0-14.777c-4.079-4.08-10.693-4.08-14.778,0l-59.178,59.177h-35.432l76.893-76.894    c4.08-4.08,4.08-10.696,0-14.777c-4.081-4.08-10.695-4.08-14.778,0l-91,91c-0.215,0.215-0.414,0.442-0.606,0.671h-66.755    l106.614-106.614c4.08-4.08,4.08-10.696,0-14.778c-4.081-4.08-10.695-4.08-14.778,0L119.641,214.021H10.449    C4.679,214.021,0,218.699,0,224.47v258.123c0,5.771,4.679,10.449,10.449,10.449h436.755c5.77,0,10.449-4.678,10.449-10.449    V270.604l51.287-51.287C513.02,215.235,513.02,208.619,508.94,204.539z" fill="#3c5a72" data-original="#000000" style="" class=""/>
	</g>
</g>
<g xmlns="http://www.w3.org/2000/svg">
</g>
<g xmlns="http://www.w3.org/2000/svg">
</g>
<g xmlns="http://www.w3.org/2000/svg">
</g>
<g xmlns="http://www.w3.org/2000/svg">
</g>
<g xmlns="http://www.w3.org/2000/svg">
</g>
<g xmlns="http://www.w3.org/2000/svg">
</g>
<g xmlns="http://www.w3.org/2000/svg">
</g>
<g xmlns="http://www.w3.org/2000/svg">
</g>
<g xmlns="http://www.w3.org/2000/svg">
</g>
<g xmlns="http://www.w3.org/2000/svg">
</g>
<g xmlns="http://www.w3.org/2000/svg">
</g>
<g xmlns="http://www.w3.org/2000/svg">
</g>
<g xmlns="http://www.w3.org/2000/svg">
</g>
<g xmlns="http://www.w3.org/2000/svg">
</g>
<g xmlns="http://www.w3.org/2000/svg">
</g>
</g></svg>
