<?xml version="1.0"?>
<svg xmlns="http://www.w3.org/2000/svg" xmlns:xlink="http://www.w3.org/1999/xlink" xmlns:svgjs="http://svgjs.com/svgjs" version="1.1" width="512" height="512" x="0" y="0" viewBox="0 0 512 512" style="enable-background:new 0 0 512 512" xml:space="preserve" class=""><g><path xmlns="http://www.w3.org/2000/svg" d="m105 342c24.8125 0 45-20.1875 45-45s-20.1875-45-45-45-45 20.1875-45 45 20.1875 45 45 45zm0-60c8.269531 0 15 6.730469 15 15s-6.730469 15-15 15-15-6.730469-15-15 6.730469-15 15-15zm0 0" fill="#3c5a72" data-original="#000000" style="" class=""/><path xmlns="http://www.w3.org/2000/svg" d="m512 0h-410v192h-102v320h410v-192h102zm-132 222v175.195312l-43.835938-30.671874-64.683593 23.910156-64.492188-43.152344-176.988281 65.207031v-190.488281zm-350 260v-37.539062l173.011719-63.742188 64.507812 43.164062 64.316407-23.773437 48.164062 33.703125v48.1875zm452-192h-72v-98h-278v-162h350zm0 0" fill="#3c5a72" data-original="#000000" style="" class=""/><path xmlns="http://www.w3.org/2000/svg" d="m305 60h147v30h-147zm0 0" fill="#3c5a72" data-original="#000000" style="" class=""/><path xmlns="http://www.w3.org/2000/svg" d="m305 120h147v30h-147zm0 0" fill="#3c5a72" data-original="#000000" style="" class=""/></g></svg>
