<?xml version="1.0"?>
<svg xmlns="http://www.w3.org/2000/svg" xmlns:xlink="http://www.w3.org/1999/xlink" xmlns:svgjs="http://svgjs.com/svgjs" version="1.1" width="512" height="512" x="0" y="0" viewBox="0 0 512 512" style="enable-background:new 0 0 512 512" xml:space="preserve" class=""><g><g xmlns="http://www.w3.org/2000/svg"><g><path d="m188.142 219.003h-2.499v-37.496c0-6.679-8.102-10.005-12.801-5.302l-10 9.998c-2.928 2.93-2.928 7.677 0 10.605 2.111 2.109 5.165 2.696 7.803 1.771v20.424h-2.5c-4.141 0-7.499 3.356-7.499 7.499s3.357 7.499 7.499 7.499h19.997c4.142 0 7.5-3.356 7.5-7.499s-3.358-7.499-7.5-7.499z" fill="#3c5a72" data-original="#000000" style="" class=""/><path d="m226.699 174.008c-12.405 0-22.496 10.092-22.496 22.497v14.998c0 12.404 10.091 22.497 22.496 22.497 12.406 0 22.498-10.093 22.498-22.497v-14.998c0-12.406-10.092-22.497-22.498-22.497zm7.5 37.496c0 4.136-3.364 7.499-7.5 7.499-4.134 0-7.498-3.363-7.498-7.499v-14.998c0-4.136 3.364-7.499 7.498-7.499 4.136 0 7.5 3.363 7.5 7.499z" fill="#3c5a72" data-original="#000000" style="" class=""/><path d="m280.277 174.008c-12.405 0-22.496 10.092-22.496 22.497v14.998c0 12.404 10.091 22.497 22.496 22.497 12.406 0 22.498-10.093 22.498-22.497v-14.998c0-12.406-10.091-22.497-22.498-22.497zm7.5 37.496c0 4.136-3.364 7.499-7.5 7.499-4.134 0-7.498-3.363-7.498-7.499v-14.998c0-4.136 3.364-7.499 7.498-7.499 4.136 0 7.5 3.363 7.5 7.499z" fill="#3c5a72" data-original="#000000" style="" class=""/><path d="m318.858 188.997c4.141 0 7.5-3.357 7.5-7.499 0-4.143-3.359-7.499-7.5-7.499-4.142 0-7.499 3.356-7.499 7.499 0 4.141 3.357 7.499 7.499 7.499z" fill="#3c5a72" data-original="#000000" style="" class=""/><path d="m347.495 174.943c-3.622-2.011-8.186-.707-10.197 2.914l-24.995 44.992c-2.011 3.62-.706 8.186 2.914 10.197 3.601 1.999 8.176.721 10.198-2.915l24.994-44.99c2.01-3.621.707-8.186-2.914-10.198z" fill="#3c5a72" data-original="#000000" style="" class=""/><path d="m343.855 218.993c-4.142 0-7.5 3.357-7.5 7.498 0 4.143 3.357 7.499 7.5 7.499 4.141 0 7.499-3.356 7.499-7.499 0-4.141-3.358-7.498-7.499-7.498z" fill="#3c5a72" data-original="#000000" style="" class=""/><path d="m7.5 278.502c4.142 0 7.5-3.357 7.5-7.5 0-4.136 3.364-7.5 7.5-7.5h467c4.136 0 7.5 3.364 7.5 7.5 0 4.143 3.357 7.5 7.5 7.5s7.5-3.357 7.5-7.5c0-12.406-10.094-22.5-22.5-22.5h-7.202c-1.221-3.313-3.239-6.32-5.93-8.715l-25.365-22.574 14.795-30.561c5.666-11.701-.174-25.71-12.409-29.962l-32.073-11.148 1.974-33.898c.756-12.959-9.981-23.685-22.931-22.931l-33.898 1.974-11.148-32.072c-4.259-12.259-18.279-18.064-29.962-12.411l-30.562 14.796-22.573-25.365c-8.642-9.709-23.805-9.69-32.43 0l-22.573 25.365-30.563-14.796c-11.656-5.644-25.693.128-29.962 12.409l-11.148 32.074-33.897-1.974c-12.928-.758-23.687 9.952-22.932 22.931l1.974 33.898-32.071 11.148c-12.262 4.26-18.064 18.283-12.411 29.962l14.795 30.561-25.365 22.574c-2.691 2.396-4.709 5.402-5.93 8.715h-7.203c-12.407 0-22.5 10.094-22.5 22.5 0 4.143 3.358 7.5 7.5 7.5zm67.704-53.852c2.506-2.229 3.226-5.852 1.765-8.871l-17.266-35.662c-1.75-3.615.033-7.935 3.834-9.258l37.426-13.01c3.168-1.101 5.22-4.172 5.025-7.52l-2.303-39.557c-.233-3.997 3.051-7.313 7.085-7.085l39.556 2.303c3.356.195 6.419-1.857 7.521-5.024l13.01-37.427c1.314-3.782 5.626-5.595 9.257-3.834l35.664 17.266c3.017 1.459 6.641.74 8.871-1.765l26.341-29.6c2.671-3 7.345-3.006 10.021 0l26.342 29.6c2.23 2.505 5.854 3.225 8.87 1.765l35.665-17.267c3.623-1.752 7.937.04 9.257 3.835l13.01 37.427c1.102 3.167 4.174 5.22 7.52 5.024l39.558-2.303c4.022-.228 7.318 3.076 7.084 7.085l-2.303 39.557c-.195 3.348 1.856 6.419 5.024 7.52l37.428 13.01c3.791 1.319 5.589 5.634 3.833 9.257l-17.266 35.663c-1.461 3.02-.74 6.642 1.765 8.871l26.802 23.853h-342.619c3.85-70.526 62.353-127.73 135.019-127.73h.05c63.41 0 119.02 45.011 132.22 107.021.73 3.439 3.82 5.939 7.33 5.939.53 0 1.05-.05 1.57-.17 4.04-.859 6.63-4.85 5.77-8.89 0-.01 0-.01 0-.021-14.49-68.02-74.997-118.88-146.939-118.88-80.193 0-146.15 63.226-150.046 142.73h-57.552z" fill="#3c5a72" data-original="#000000" style="" class=""/><path d="m504.5 323.502c-4.143 0-7.5 3.357-7.5 7.5 0 4.136-3.364 7.5-7.5 7.5h-467c-4.136 0-7.5-3.364-7.5-7.5 0-4.143-3.358-7.5-7.5-7.5s-7.5 3.357-7.5 7.5c0 12.406 10.093 22.5 22.5 22.5h57.657l10.661 10.661-2.107 36.196c-.752 12.928 9.945 23.686 22.932 22.932l33.897-1.974 11.148 32.072c4.262 12.262 18.283 18.066 29.962 12.411l30.562-14.796 22.574 25.365c8.63 9.697 23.804 9.69 32.43 0l22.573-25.365 30.561 14.796c11.681 5.656 25.703-.152 29.962-12.409l11.148-32.073 33.897 1.974c13.025.757 23.681-10.041 22.932-22.932l-2.107-36.196 10.662-10.661h57.656c12.406 0 22.5-10.094 22.5-22.5 0-4.144-3.357-7.501-7.5-7.501zm-98.488 38.173 2.303 39.556c.234 3.997-3.051 7.318-7.085 7.086l-39.557-2.303c-3.346-.197-6.418 1.857-7.52 5.024l-13.01 37.428c-1.321 3.796-5.638 5.587-9.258 3.833l-35.664-17.266c-3.02-1.461-6.64-.74-8.87 1.765l-26.342 29.6c-2.671 3-7.345 3.005-10.02 0l-26.342-29.6c-2.23-2.505-5.852-3.224-8.871-1.765l-35.663 17.267c-3.637 1.759-7.944-.055-9.257-3.835l-13.01-37.427c-1.101-3.167-4.167-5.228-7.52-5.024l-39.556 2.303c-4.046.222-7.318-3.093-7.085-7.086l2.303-39.556c.125-2.137-.67-4.226-2.184-5.739l-2.434-2.434h248.224c-25.099 24.147-58.397 37.729-93.595 37.729-31.17 0-60.48-10.359-84.76-29.939-3.182-2.584-7.9-2.138-10.55 1.12-2.59 3.22-2.09 7.949 1.13 10.55.01 0 .01.01.01.01 26.22 21.161 59.137 33.26 94.15 33.26l.02-.05.02.05c44.249 0 85.641-19.374 114.177-52.729h40.432l-2.434 2.434c-1.512 1.512-2.306 3.601-2.182 5.738z" fill="#3c5a72" data-original="#000000" style="" class=""/><path d="m43.856 286.004h5.503c4.143 0 7.5-3.356 7.5-7.5 0-4.142-3.356-7.498-7.5-7.498h-5.503c-16.54 0-29.997 13.456-29.997 29.995 0 16.541 13.457 29.997 29.997 29.997 8.012 0 15.543-3.12 21.209-8.786s8.787-13.197 8.787-21.211c0-4.141-3.355-7.498-7.499-7.498h-12.992c-4.142 0-7.5 3.356-7.5 7.498 0 4.144 3.357 7.5 7.5 7.5h3.491c-.648 1.122-1.449 2.164-2.39 3.106-2.835 2.833-6.601 4.393-10.606 4.393-8.271 0-14.998-6.729-14.998-14.999 0-8.268 6.727-14.997 14.998-14.997z" fill="#3c5a72" data-original="#000000" style="" class=""/><path d="m87.33 271.006c-4.141 0-7.499 3.356-7.499 7.498v27.147c0 13.978 11.436 25.347 25.497 25.347 14.059 0 25.496-11.369 25.496-25.347v-27.147c0-4.141-3.357-7.498-7.498-7.498-4.142 0-7.5 3.356-7.5 7.498v27.147c0 5.706-4.71 10.349-10.499 10.349s-10.499-4.643-10.499-10.349v-27.147c.002-4.142-3.357-7.498-7.498-7.498z" fill="#3c5a72" data-original="#000000" style="" class=""/><path d="m158.836 271.006c-3.125 0-5.924 1.938-7.021 4.864l-16.873 44.995c-1.455 3.879.512 8.201 4.388 9.654 3.879 1.451 8.2-.51 9.656-4.388l.987-2.633h17.727l.988 2.633c1.461 3.899 5.802 5.836 9.654 4.388 3.876-1.453 5.841-5.775 4.387-9.654l-16.872-44.995c-1.098-2.926-3.896-4.864-7.021-4.864zm-3.241 37.495 3.24-8.64 3.239 8.64z" fill="#3c5a72" data-original="#000000" style="" class=""/><path d="m236.206 293.504c0-12.404-10.036-22.497-22.371-22.497h-14.625c-4.141 0-7.499 3.356-7.499 7.498v44.995c0 4.143 3.357 7.499 7.499 7.499 4.141 0 7.5-3.356 7.5-7.499v-7.499h3.999l12.673 12.779c1.465 1.479 3.395 2.219 5.325 2.219 1.908 0 3.817-.725 5.28-2.174 2.94-2.916 2.96-7.665.045-10.605l-6.719-6.775c5.398-4.112 8.893-10.623 8.893-17.941zm-22.371 7.497h-7.125v-14.997h7.125c4.064 0 7.372 3.363 7.372 7.499 0 4.135-3.307 7.498-7.372 7.498z" fill="#3c5a72" data-original="#000000" style="" class=""/><path d="m268.069 271.006c-3.125 0-5.924 1.938-7.021 4.864l-16.873 44.995c-1.456 3.879.511 8.201 4.388 9.654 3.879 1.451 8.2-.51 9.656-4.388l.987-2.633h17.728l.988 2.633c1.128 3.011 3.986 4.867 7.021 4.867.875 0 1.765-.153 2.632-.479 3.876-1.453 5.841-5.775 4.387-9.654l-16.872-44.995c-1.098-2.926-3.896-4.864-7.021-4.864zm-3.241 37.495 3.24-8.64 3.239 8.64z" fill="#3c5a72" data-original="#000000" style="" class=""/><path d="m332.941 278.504v22.088l-19.45-26.521c-1.918-2.613-5.298-3.701-8.38-2.691-3.083 1.008-5.166 3.885-5.166 7.126v44.994c0 4.143 3.357 7.499 7.499 7.499 4.141 0 7.5-3.356 7.5-7.499v-22.087l19.449 26.521c4.252 5.799 13.548 2.846 13.548-4.436v-44.995c-.001-4.141-3.358-7.498-7.5-7.498-4.143.001-7.5 3.357-7.5 7.499z" fill="#3c5a72" data-original="#000000" style="" class=""/><path d="m376.71 330.998c4.142 0 7.499-3.356 7.499-7.499v-37.495h9.5c4.141 0 7.499-3.356 7.499-7.5 0-4.142-3.357-7.498-7.499-7.498h-33.996c-4.142 0-7.5 3.356-7.5 7.498 0 4.144 3.357 7.5 7.5 7.5h9.499v37.495c0 4.143 3.357 7.499 7.498 7.499z" fill="#3c5a72" data-original="#000000" style="" class=""/><path d="m436.108 286.004c4.142 0 7.499-3.356 7.499-7.5 0-4.142-3.356-7.498-7.499-7.498h-22.997c-4.141 0-7.499 3.356-7.499 7.498v44.995c0 4.143 3.357 7.499 7.499 7.499h22.997c4.142 0 7.499-3.356 7.499-7.499s-3.357-7.499-7.499-7.499h-15.498v-7.499h9.499c4.142 0 7.498-3.356 7.498-7.5 0-4.142-3.356-7.498-7.498-7.498h-9.499v-7.499z" fill="#3c5a72" data-original="#000000" style="" class=""/><path d="m482.642 286.004c4.142 0 7.499-3.356 7.499-7.5 0-4.142-3.356-7.498-7.499-7.498h-22.997c-4.141 0-7.499 3.356-7.499 7.498v44.995c0 4.143 3.357 7.499 7.499 7.499h22.997c4.142 0 7.499-3.356 7.499-7.499s-3.357-7.499-7.499-7.499h-15.498v-7.499h9.499c4.142 0 7.498-3.356 7.498-7.5 0-4.142-3.356-7.498-7.498-7.498h-9.499v-7.499z" fill="#3c5a72" data-original="#000000" style="" class=""/></g></g></g></svg>
