<?xml version="1.0"?>
<svg xmlns="http://www.w3.org/2000/svg" xmlns:xlink="http://www.w3.org/1999/xlink" xmlns:svgjs="http://svgjs.com/svgjs" version="1.1" width="512" height="512" x="0" y="0" viewBox="0 0 496 496" style="enable-background:new 0 0 512 512" xml:space="preserve" class=""><g><path xmlns="http://www.w3.org/2000/svg" d="m448 223.738281h-48v-24c0-4.417969-3.574219-8-8-8h-24v-40h56c13.230469 0 24-10.769531 24-24v-36.6875l18.34375 18.34375 11.3125-11.3125-32-32c-3.128906-3.128906-8.183594-3.128906-11.3125 0l-32 32 11.3125 11.3125 18.34375-18.34375v36.6875c0 4.40625-3.585938 8-8 8h-56v-84.6875l18.34375 18.34375 11.3125-11.3125-32-32c-3.128906-3.128906-8.183594-3.128906-11.3125 0l-32 32 11.3125 11.3125 18.34375-18.34375v84.6875h-8c-13.230469 0-24 10.769531-24 24v32h-32v-40h16v-16h-13.390625l13.085937-45.800781c.601563-2.128906.304688-4.414062-.832031-6.320312l-48-80c-2.886719-4.824219-10.832031-4.824219-13.71875 0l-48 80c-1.144531 1.898437-1.441406 4.183593-.832031 6.320312l13.078125 45.800781h-13.390625v16h16v40h-32v-88c0-1.242187-.289062-2.472656-.839844-3.578125l-24-48c-2.71875-5.421875-11.59375-5.421875-14.3125 0l-24 48c-.558594 1.105469-.847656 2.335938-.847656 3.578125v88h-8c-4.425781 0-8 3.582031-8 8v24h-48c-26.472656 0-48 21.527344-48 48v112c0 26.472657 21.527344 48 48 48h48v24c0 22.054688 17.945312 40 40 40h224c22.054688 0 40-17.945312 40-40v-24h48c26.472656 0 48-21.527343 48-48v-112c0-26.472656-21.527344-48-48-48zm-400 192c-17.648438 0-32-14.351562-32-32v-112c0-17.648437 14.351562-32 32-32h48v16h-40c-13.230469 0-24 10.769531-24 24v96c0 13.230469 10.769531 24 24 24h40v16zm48-144v112h-40c-4.414062 0-8-3.59375-8-8v-96c0-4.410156 3.585938-8 8-8zm240-112c0-4.410156 3.585938-8 8-8h8v40h-16zm-88 80c-13.230469 0-24 10.769531-24 24v32c0 4.40625-3.585938 8-8 8s-8-3.59375-8-8v-48c0-13.230469-10.769531-24-24-24s-24 10.769531-24 24c0 4.40625-3.585938 8-8 8s-8-3.59375-8-8v-40h144v120c0 4.40625-3.585938 8-8 8s-8-3.59375-8-8v-64c0-13.230469-10.769531-24-24-24zm8-144c0 4.40625-3.585938 8-8 8s-8-3.59375-8-8c0-4.410156 3.585938-8 8-8s8 3.589844 8 8zm-47.351562-6.855469 31.351562-52.257812v36.59375c-9.289062 3.3125-16 12.109375-16 22.527344 0 13.230468 10.769531 24 24 24s24-10.769532 24-24c0-10.417969-6.710938-19.214844-16-22.527344v-36.59375l31.351562 52.257812-13.390624 46.855469h-51.929688zm15.351562 62.855469h48v40h-48zm-80-78.113281 11.054688 22.113281h-22.109376zm-16 38.113281h32v80h-32zm256 344c0 13.230469-10.769531 24-24 24h-224c-13.230469 0-24-10.769531-24-24v-248h16v40c0 13.230469 10.769531 24 24 24s24-10.769531 24-24c0-4.410156 3.585938-8 8-8s8 3.589844 8 8v48c0 13.230469 10.769531 24 24 24s24-10.769531 24-24v-32c0-4.410156 3.585938-8 8-8s8 3.589844 8 8v64c0 13.230469 10.769531 24 24 24s24-10.769531 24-24v-120h80zm16-184h40c4.414062 0 8 3.589844 8 8v96c0 4.40625-3.585938 8-8 8h-40zm80 112c0 17.648438-14.351562 32-32 32h-48v-16h40c13.230469 0 24-10.769531 24-24v-96c0-13.230469-10.769531-24-24-24h-40v-16h48c17.648438 0 32 14.351563 32 32zm0 0" fill="#3c5a72" data-original="#000000" style="" class=""/></g></svg>
