<?xml version="1.0"?>
<svg xmlns="http://www.w3.org/2000/svg" xmlns:xlink="http://www.w3.org/1999/xlink" xmlns:svgjs="http://svgjs.com/svgjs" version="1.1" width="512" height="512" x="0" y="0" viewBox="0 0 512 512" style="enable-background:new 0 0 512 512" xml:space="preserve" class=""><g><g xmlns="http://www.w3.org/2000/svg"><path d="m497 186c-19.299 0-35-15.701-35-35 0-8.284-6.716-15-15-15h-71.949c-67.968-60.019-170.128-60.024-238.102 0h-71.949c-8.284 0-15 6.716-15 15 0 19.299-15.701 35-35 35-8.284 0-15 6.716-15 15v110c0 8.284 6.716 15 15 15 19.299 0 35 15.701 35 35 0 8.284 6.716 15 15 15h71.949c67.968 60.019 170.128 60.024 238.102 0h71.949c8.284 0 15-6.716 15-15 0-19.299 15.701-35 35-35 8.284 0 15-6.716 15-15v-110c0-8.284-6.716-15-15-15zm-15 111.747c-23.818 5.646-42.606 24.435-48.253 48.253h-64.511c-3.829 0-7.513 1.464-10.297 4.093-57.769 54.533-148.052 54.587-205.879 0-2.784-2.629-6.468-4.093-10.297-4.093h-64.51c-5.647-23.818-24.435-42.606-48.253-48.253v-83.494c23.818-5.647 42.606-24.435 48.253-48.253h64.511c3.829 0 7.513-1.464 10.297-4.092 57.766-54.532 148.053-54.589 205.879 0 2.784 2.628 6.468 4.092 10.297 4.092h64.511c5.646 23.818 24.435 42.606 48.253 48.253v83.494z" fill="#3c5a72" data-original="#000000" style="" class=""/><path d="m406 211h-300c-8.284 0-15 6.716-15 15s6.716 15 15 15h300c8.284 0 15-6.716 15-15s-6.716-15-15-15z" fill="#3c5a72" data-original="#000000" style="" class=""/><path d="m406 271h-300c-8.284 0-15 6.716-15 15s6.716 15 15 15h300c8.284 0 15-6.716 15-15s-6.716-15-15-15z" fill="#3c5a72" data-original="#000000" style="" class=""/></g></g></svg>
