<?xml version="1.0"?>
<svg xmlns="http://www.w3.org/2000/svg" xmlns:xlink="http://www.w3.org/1999/xlink" xmlns:svgjs="http://svgjs.com/svgjs" version="1.1" width="512" height="512" x="0" y="0" viewBox="0 0 480.072 480.072" style="enable-background:new 0 0 512 512" xml:space="preserve" class=""><g>
<g xmlns="http://www.w3.org/2000/svg">
	<g>
		<rect x="232.036" y="328.072" width="16" height="16" fill="#3c5a72" data-original="#000000" style="" class=""/>
	</g>
</g>
<g xmlns="http://www.w3.org/2000/svg">
	<g>
		<path d="M240.036,296.072c-22.091,0-40,17.909-40,40c0.026,22.08,17.92,39.974,40,40c22.091,0,40-17.909,40-40    C280.036,313.98,262.127,296.072,240.036,296.072z M240.036,360.072c-13.255,0-24-10.745-24-24s10.745-24,24-24s24,10.745,24,24    S253.291,360.072,240.036,360.072z" fill="#3c5a72" data-original="#000000" style="" class=""/>
	</g>
</g>
<g xmlns="http://www.w3.org/2000/svg">
	<g>
		<rect x="200.036" y="392.072" width="80" height="16" fill="#3c5a72" data-original="#000000" style="" class=""/>
	</g>
</g>
<g xmlns="http://www.w3.org/2000/svg">
	<g>
		<rect x="128.036" y="296.072" width="16" height="16" fill="#3c5a72" data-original="#000000" style="" class=""/>
	</g>
</g>
<g xmlns="http://www.w3.org/2000/svg">
	<g>
		<rect x="128.036" y="328.072" width="16" height="16" fill="#3c5a72" data-original="#000000" style="" class=""/>
	</g>
</g>
<g xmlns="http://www.w3.org/2000/svg">
	<g>
		<rect x="128.036" y="360.072" width="16" height="16" fill="#3c5a72" data-original="#000000" style="" class=""/>
	</g>
</g>
<g xmlns="http://www.w3.org/2000/svg">
	<g>
		<rect x="128.036" y="392.072" width="16" height="16" fill="#3c5a72" data-original="#000000" style="" class=""/>
	</g>
</g>
<g xmlns="http://www.w3.org/2000/svg">
	<g>
		<path d="M416.036,264.072h-88.36c-1.695-19.745-9.642-38.434-22.688-53.352l-32.952-37.656v-52.992h24v-16h-16v-8.88    C301.681,73.1,301.319,37.645,279.228,16c-22.091-21.645-57.547-21.283-79.192,0.808c-21.333,21.773-21.333,56.61,0,78.384v8.88    h-16v16h24v52.992l-32.952,37.656c-13.046,14.918-20.994,33.607-22.688,53.352h-64.36c-17.673,0-32,14.327-32,32v128    c0,17.673,14.327,32,32,32h8c4.418,0,8-3.582,8-8v-8h48v16c0,13.255,10.745,24,24,24h128c13.255,0,24-10.745,24-24v-16h88    c4.418,0,8-3.582,8-8v-160C424.036,267.654,420.454,264.072,416.036,264.072z M210.212,29.336    c14.724-16.469,40.011-17.884,56.48-3.16c16.469,14.724,17.884,40.011,3.16,56.48c-0.994,1.111-2.049,2.167-3.16,3.16    c-1.69,1.517-2.656,3.681-2.656,5.952v12.304h-16V83.384l21.656-21.656L258.38,50.416L240.036,68.76l-18.344-18.344L210.38,61.728    l21.656,21.656v20.688h-16V91.776c0-2.275-0.969-4.443-2.664-5.96C196.903,71.092,195.488,45.805,210.212,29.336z     M256.036,120.072v16h-32v-16H256.036z M187.124,221.256l34.928-39.912c1.279-1.459,1.984-3.332,1.984-5.272v-24h32v24    c0,1.94,0.705,3.813,1.984,5.272l34.928,39.912c10.481,12.007,16.99,26.963,18.632,42.816H168.492    C170.134,248.219,176.642,233.262,187.124,221.256z M88.036,440.072c-8.837,0-16-7.163-16-16V323.776    c4.859,2.822,10.381,4.305,16,4.296V440.072z M312.036,456.072c0,4.418-3.582,8-8,8h-128c-4.418,0-8-3.582-8-8v-16h144V456.072z     M408.036,424.072h-304v-104c0-4.418-3.582-8-8-8h-8c-8.837,0-16-7.163-16-16s7.163-16,16-16h320V424.072z" fill="#3c5a72" data-original="#000000" style="" class=""/>
	</g>
</g>
<g xmlns="http://www.w3.org/2000/svg">
</g>
<g xmlns="http://www.w3.org/2000/svg">
</g>
<g xmlns="http://www.w3.org/2000/svg">
</g>
<g xmlns="http://www.w3.org/2000/svg">
</g>
<g xmlns="http://www.w3.org/2000/svg">
</g>
<g xmlns="http://www.w3.org/2000/svg">
</g>
<g xmlns="http://www.w3.org/2000/svg">
</g>
<g xmlns="http://www.w3.org/2000/svg">
</g>
<g xmlns="http://www.w3.org/2000/svg">
</g>
<g xmlns="http://www.w3.org/2000/svg">
</g>
<g xmlns="http://www.w3.org/2000/svg">
</g>
<g xmlns="http://www.w3.org/2000/svg">
</g>
<g xmlns="http://www.w3.org/2000/svg">
</g>
<g xmlns="http://www.w3.org/2000/svg">
</g>
<g xmlns="http://www.w3.org/2000/svg">
</g>
</g></svg>
