<?xml version="1.0"?>
<svg xmlns="http://www.w3.org/2000/svg" xmlns:xlink="http://www.w3.org/1999/xlink" xmlns:svgjs="http://svgjs.com/svgjs" version="1.1" width="512" height="512" x="0" y="0" viewBox="0 0 64 64" style="enable-background:new 0 0 512 512" xml:space="preserve" class=""><g><path xmlns="http://www.w3.org/2000/svg" d="m57 18.995c.009 0 .017-.005.025-.005 3.848-.014 6.975-3.148 6.975-6.999 0-3.859-3.141-7-7-7h-50c-3.859 0-7 3.141-7 7 0 3.851 3.127 6.984 6.975 6.999.009 0 .017.005.025.005h7.003v1.998h-7.002-.001c-3.859 0-7 3.141-7 7 0 3.851 3.128 6.985 6.976 6.999.009 0 .017.005.025.005h7.002v23.012c0 .553.447 1 1 1h31.996c.118 0 .228-.029.333-.067.014-.005.028-.003.042-.008.13-.053.245-.132.342-.231l5.991-5.991c.093-.092.166-.203.217-.326.051-.122.077-.252.077-.382v-17.01h2.999c3.859 0 7-3.141 7-7s-3.141-7-7-7h-2.999v-1.998h2.999zm-4.999 32.008h-5.004c-.553 0-1 .447-1 1v5.006h-29.994v-38.008h35.998zm-4.004 2h2.59l-2.59 2.59zm-45.997-25.01c0-2.757 2.243-5 5-5s5 2.243 5 5-2.243 5-5 5-5-2.243-5-5zm9.885 5.004c1.303-1.272 2.115-3.044 2.115-5.004 0-1.958-.811-3.729-2.11-5h2.113v10.004zm45.115-10.004c2.757 0 5 2.243 5 5s-2.243 5-5 5h-2.999v-10zm0-16.002c2.757 0 5 2.243 5 5s-2.243 5-5 5c-.007 0-.013.004-.02.004h-45.095c1.303-1.272 2.115-3.044 2.115-5.004 0-1.958-.811-3.729-2.11-5zm-55 5c0-2.757 2.243-5 5-5s5 2.243 5 5-2.243 5-5 5-5-2.243-5-5z" fill="#3c5a72" data-original="#000000" style=""/><path xmlns="http://www.w3.org/2000/svg" d="m10 27.993c0-1.654-1.346-3-3-3s-3 1.346-3 3 1.346 3 3 3 3-1.346 3-3zm-4 0c0-.552.448-1 1-1s1 .448 1 1-.448 1-1 1-1-.448-1-1z" fill="#3c5a72" data-original="#000000" style=""/><path xmlns="http://www.w3.org/2000/svg" d="m10 11.995c0-1.654-1.346-3-3-3s-3 1.346-3 3 1.346 3 3 3 3-1.346 3-3zm-4 0c0-.552.448-1 1-1s1 .448 1 1-.448 1-1 1-1-.448-1-1z" fill="#3c5a72" data-original="#000000" style=""/><path xmlns="http://www.w3.org/2000/svg" d="m22.033 44.287c.02.062.044.117.074.174.029.055.063.104.104.153.044.054.092.1.146.144.027.021.043.051.072.07.032.021.069.03.104.047.032.017.062.032.096.045.112.041.229.069.345.069h.001 24c.04 0 .073-.019.112-.022.069-.008.138-.019.205-.041.056-.02.105-.044.156-.072.022-.012.046-.017.067-.03s.03-.034.05-.048c.069-.053.13-.11.185-.18.03-.039.057-.078.081-.121.036-.063.064-.128.086-.199.019-.061.03-.121.037-.185.004-.035.021-.065.021-.102 0-.029-.015-.054-.017-.082-.005-.071-.021-.139-.042-.209-.018-.058-.037-.111-.064-.165-.016-.029-.018-.063-.036-.092l-9-13.985c-.002-.004-.006-.005-.009-.009-.037-.057-.095-.1-.145-.148-.045-.045-.084-.098-.137-.133-.004-.003-.006-.007-.01-.01-.044-.028-.095-.034-.141-.055-.069-.031-.135-.067-.208-.081-.066-.014-.132-.005-.198-.005-.062 0-.123-.008-.185.004-.078.016-.148.053-.221.086-.043.02-.089.024-.13.051-.004.002-.006.007-.01.009-.054.036-.094.091-.142.138-.048.048-.104.089-.14.145-.002.003-.007.005-.009.009l-4.683 7.276-2.138-3.288c-.002-.003-.005-.004-.007-.007-.035-.054-.091-.093-.137-.14-.048-.048-.089-.104-.144-.141-.003-.002-.004-.005-.007-.007-.042-.027-.09-.033-.134-.053-.072-.033-.142-.072-.219-.087-.064-.013-.128-.004-.192-.004s-.128-.009-.192.004c-.076.015-.146.054-.217.086-.045.021-.094.026-.136.054-.003.002-.004.005-.007.007-.055.036-.094.092-.142.139-.047.048-.103.087-.139.142-.002.003-.005.004-.007.007l-6.5 10c-.017.025-.018.054-.031.08-.032.059-.054.119-.073.184-.02.066-.034.131-.04.198-.002.029-.017.054-.017.083 0 .035.017.064.02.099.011.067.024.132.044.198zm11.236-5.131c.011-.015.02-.03.029-.046l4.676-7.266 7.172 11.145h-14.344zm-4.845 3.833h-3.607l4.657-7.164 1.789 2.752z" fill="#3c5a72" data-original="#000000" style=""/><path xmlns="http://www.w3.org/2000/svg" d="m24.976 30.972c1.654 0 3-1.346 3-3s-1.346-3-3-3-3 1.346-3 3 1.345 3 3 3zm0-4c.552 0 1 .448 1 1s-.448 1-1 1-1-.448-1-1 .448-1 1-1z" fill="#3c5a72" data-original="#000000" style=""/></g></svg>
