<?xml version="1.0"?>
<svg xmlns="http://www.w3.org/2000/svg" xmlns:xlink="http://www.w3.org/1999/xlink" xmlns:svgjs="http://svgjs.com/svgjs" version="1.1" width="512" height="512" x="0" y="0" viewBox="0 0 128 128" style="enable-background:new 0 0 512 512" xml:space="preserve" class=""><g><g xmlns="http://www.w3.org/2000/svg"><path d="m118.144 18.6-5.657-5.656a7.75 7.75 0 0 0 -10.96 0c-.223.223-53.23 53.2-53.475 53.5a1.475 1.475 0 0 0 -.269.449l-.007.012-8.807 22.956a1.75 1.75 0 0 0 2.261 2.261l22.949-8.807a.239.239 0 0 0 .021-.015 1.9 1.9 0 0 0 .586-.386l53.357-53.352a7.761 7.761 0 0 0 .001-10.962zm-8.6 14.607-45.994 45.998-4.595-4.595 45.994-45.995zm-53.063 38.928-4.6-4.595 45.998-45.995 4.595 4.6zm-10.806 10.021 3.26 3.26-5.291 2.03zm6.836 1.888-5.464-5.464 3.031-7.9 5.162 5.162 5.164 5.164zm63.158-56.954-3.069 3.065c-.007.007-.015.011-.022.018l-.563.563-5.815-5.823-.009-.011-.01-.008-5.823-5.823c.567-.567 3.838-3.839 3.648-3.648a4.249 4.249 0 0 1 6.01 0l5.657 5.656a4.256 4.256 0 0 1 -.004 6.011z" fill="#3c5a72" data-original="#000000" style=""/><path d="m110.076 68.19a1.752 1.752 0 0 0 -1.867.143l-5.186 3.872-4.551-4.3a1.75 1.75 0 0 0 -2.95 1.192 36.25 36.25 0 1 1 -38.546-37.862v5.578a1.749 1.749 0 0 0 2.7 1.471l20.383-13.117a1.75 1.75 0 0 0 0-2.944l-20.381-13.081a1.749 1.749 0 0 0 -2.695 1.472v5.1a51.749 51.749 0 1 0 54.017 54.102 1.748 1.748 0 0 0 -.924-1.626zm-16.645 33.337a48.25 48.25 0 1 1 -34.679-82.36 1.751 1.751 0 0 0 1.731-1.75v-3.6l15.392 9.883-15.399 9.9v-4.184a1.75 1.75 0 0 0 -.522-1.247 1.686 1.686 0 0 0 -1.255-.5 39.748 39.748 0 1 0 39.981 45.247l3.01 2.844a1.752 1.752 0 0 0 2.248.13l3.241-2.42a48.131 48.131 0 0 1 -13.748 28.057z" fill="#3c5a72" data-original="#000000" style=""/></g></g></svg>
