<?xml version="1.0"?>
<svg xmlns="http://www.w3.org/2000/svg" xmlns:xlink="http://www.w3.org/1999/xlink" xmlns:svgjs="http://svgjs.com/svgjs" version="1.1" width="512" height="512" x="0" y="0" viewBox="0 0 512 512" style="enable-background:new 0 0 512 512" xml:space="preserve" class=""><g><g xmlns="http://www.w3.org/2000/svg"><g><path d="m333.201 195.39v-101.016c0-4.142-3.358-7.5-7.5-7.5h-181.829c-4.142 0-7.5 3.358-7.5 7.5v101.016c0 4.142 3.358 7.5 7.5 7.5h181.829c4.142 0 7.5-3.358 7.5-7.5zm-15-7.5h-166.829v-86.016h166.829z" fill="#3c5a72" data-original="#000000" style="" class=""/><path d="m292.795 395.402c0-4.142-3.358-7.5-7.5-7.5h-141.423c-4.142 0-7.5 3.358-7.5 7.5s3.358 7.5 7.5 7.5h141.423c4.142 0 7.5-3.358 7.5-7.5z" fill="#3c5a72" data-original="#000000" style="" class=""/><path d="m143.872 420.228c-4.142 0-7.5 3.358-7.5 7.5s3.358 7.5 7.5 7.5h101.016c4.142 0 7.5-3.358 7.5-7.5s-3.358-7.5-7.5-7.5z" fill="#3c5a72" data-original="#000000" style="" class=""/><path d="m357.02 22.22h-303.05c-15.28 0-27.71 12.431-27.71 27.71v20.781h-8.658c-9.706 0-17.602 7.896-17.602 17.602v12.122c0 9.706 7.896 17.602 17.602 17.602h8.663v17.325h-8.663c-9.706 0-17.602 7.896-17.602 17.601v12.122c0 9.706 7.896 17.602 17.602 17.602h8.663v17.325h-8.663c-9.706 0-17.602 7.896-17.602 17.602v12.122c0 9.706 7.896 17.602 17.602 17.602h8.663v17.325h-8.663c-9.706 0-17.602 7.896-17.602 17.601v12.122c0 9.706 7.896 17.602 17.602 17.602h8.663v17.325h-8.663c-9.706 0-17.602 7.896-17.602 17.602v12.122c0 9.706 7.896 17.602 17.602 17.602h8.663v17.325h-8.663c-9.706-.001-17.602 7.895-17.602 17.601v12.122c0 9.706 7.896 17.602 17.602 17.602h8.658v20.781c0 15.279 12.431 27.71 27.71 27.71h303.05c15.274 0 27.7-12.431 27.7-27.71v-334.03c0-4.142-3.358-7.5-7.5-7.5s-7.5 3.358-7.5 7.5v334.03c0 7.008-5.697 12.71-12.7 12.71h-257.17v-71.98c0-4.142-3.358-7.5-7.5-7.5s-7.5 3.358-7.5 7.5v71.98h-30.88c-7.008 0-12.71-5.702-12.71-12.71v-20.781h8.667c9.706 0 17.602-7.896 17.602-17.602v-12.122c0-9.706-7.896-17.602-17.602-17.602h-8.663v-17.325h8.663c9.706 0 17.602-7.896 17.602-17.602v-12.122c0-9.706-7.896-17.602-17.602-17.602h-8.663v-17.325h8.663c9.706 0 17.602-7.896 17.602-17.602v-12.122c0-9.706-7.896-17.602-17.602-17.602h-8.663v-17.325h8.663c9.706 0 17.602-7.896 17.602-17.602v-12.122c0-9.706-7.896-17.602-17.602-17.602h-8.663v-17.325h8.663c9.706 0 17.602-7.896 17.602-17.602v-12.122c0-9.706-7.896-17.602-17.602-17.602h-8.663v-17.325h8.663c9.706 0 17.602-7.896 17.602-17.602v-12.119c0-9.706-7.896-17.602-17.602-17.602h-8.667v-20.781c0-7.008 5.702-12.71 12.71-12.71h30.88v330.58c0 4.142 3.358 7.5 7.5 7.5s7.5-3.358 7.5-7.5v-330.58h257.17c7.003 0 12.7 5.702 12.7 12.71v43.11c0 4.142 3.358 7.5 7.5 7.5s7.5-3.358 7.5-7.5v-43.11c0-15.279-12.426-27.71-27.7-27.71zm-304.492 389.345v12.122c0 1.435-1.167 2.602-2.602 2.602h-32.324c-1.435 0-2.602-1.167-2.602-2.602v-12.122c0-1.435 1.167-2.602 2.602-2.602h32.325c1.434 0 2.601 1.167 2.601 2.602zm0-64.65v12.122c0 1.435-1.167 2.602-2.602 2.602h-32.324c-1.435 0-2.602-1.167-2.602-2.602v-12.122c0-1.435 1.167-2.602 2.602-2.602h32.325c1.434 0 2.601 1.167 2.601 2.602zm0-64.651v12.122c0 1.435-1.167 2.602-2.602 2.602h-32.324c-1.435 0-2.602-1.167-2.602-2.602v-12.122c0-1.435 1.167-2.602 2.602-2.602h32.325c1.434.001 2.601 1.168 2.601 2.602zm0-64.65v12.122c0 1.435-1.167 2.602-2.602 2.602h-32.324c-1.435 0-2.602-1.167-2.602-2.602v-12.122c0-1.435 1.167-2.602 2.602-2.602h32.325c1.434 0 2.601 1.167 2.601 2.602zm0-64.651v12.122c0 1.435-1.167 2.602-2.602 2.602h-32.324c-1.435 0-2.602-1.167-2.602-2.602v-12.122c0-1.435 1.167-2.602 2.602-2.602h32.325c1.434.001 2.601 1.168 2.601 2.602zm0-64.65v12.122c0 1.435-1.167 2.602-2.602 2.602h-32.324c-1.435 0-2.602-1.167-2.602-2.602v-12.122c0-1.435 1.167-2.602 2.602-2.602h32.325c1.434 0 2.601 1.167 2.601 2.602z" fill="#3c5a72" data-original="#000000" style="" class=""/><path d="m501.898 71.725v-21.798c0-15.275-12.428-27.703-27.703-27.703h-24.244c-15.275 0-27.703 12.428-27.703 27.703v21.799c-5.892 2.224-10.102 7.906-10.102 14.567v16.163c0 6.662 4.21 12.344 10.104 14.568v294.836c0 9.168 2.611 18.1 7.553 25.833l17.442 27.254c1.828 2.852 4.377 5.057 7.328 6.444v10.885c0 4.142 3.358 7.5 7.5 7.5s7.5-3.358 7.5-7.5v-10.885c2.952-1.387 5.5-3.595 7.323-6.447l17.454-27.256c4.939-7.729 7.55-16.661 7.55-25.829v-99.97c0-4.142-3.358-7.5-7.5-7.5s-7.5 3.358-7.5 7.5v99.97c0 6.3-1.794 12.438-5.186 17.746l-17.453 27.254c-.666 1.042-1.655 1.197-2.186 1.198h-.001c-.534 0-1.528-.157-2.197-1.201l-17.437-27.246c-3.396-5.313-5.19-11.451-5.19-17.751v-293.819h17.323v107.655c0 8.591 6.99 15.581 15.581 15.581h16.163c.197 0 .388-.022.583-.03v35.643c0 4.142 3.358 7.5 7.5 7.5s7.5-3.358 7.5-7.5v-159.867c5.891-2.225 10.1-7.906 10.1-14.567v-16.163c0-6.66-4.209-12.342-10.102-14.567zm-5.48 13.986c.321 0 .582.261.582.581v16.163c0 .321-.261.582-.582.582h-68.691c-.32 0-.581-.261-.581-.582v-16.163c0-.32.261-.581.581-.581zm-46.467-48.487h24.244c7.004 0 12.703 5.699 12.703 12.703v20.785h-49.65v-20.785c0-7.005 5.699-12.703 12.703-12.703zm36.366 189.052h-16.163c-.32 0-.581-.261-.581-.581v-107.655h17.325v107.655c0 .321-.26.581-.581.581z" fill="#3c5a72" data-original="#000000" style="" class=""/></g></g></g></svg>
