<?xml version="1.0"?>
<svg xmlns="http://www.w3.org/2000/svg" xmlns:xlink="http://www.w3.org/1999/xlink" xmlns:svgjs="http://svgjs.com/svgjs" version="1.1" width="512" height="512" x="0" y="0" viewBox="0 0 512 512" style="enable-background:new 0 0 512 512" xml:space="preserve" class=""><g><g xmlns="http://www.w3.org/2000/svg"><path d="m426.723 51.689v-39.189c0-6.893-5.607-12.5-12.5-12.5h-20c-6.893 0-12.5 5.607-12.5 12.5v37.5c.146 0-11.877 0-12.445 0-15.163 0-27.5 12.336-27.5 27.5v126.109c0 11.458 1.051 22.981 3.124 34.248.665 3.615 3.818 6.145 7.367 6.145.45 0 .907-.041 1.366-.125 4.073-.75 6.769-4.659 6.019-8.733-1.72-9.076-2.919-21.634-2.876-31.866 3.973-1.249 12.877-3.437 16.445-4.956v206.166c0 2.373.181 4.767.537 7.116l8.26 54.52c1.148 7.575 6.908 13.321 14.203 14.604v23.772c0 4.142 3.357 7.5 7.5 7.5s7.5-3.358 7.5-7.5v-23.638c7.764-.914 14.005-6.824 15.203-14.741l8.261-54.518c.355-2.345.536-4.74.536-7.117v-141.061c0-4.142-3.357-7.5-7.5-7.5s-7.5 3.358-7.5 7.5v136.575h-32v-231.568l32 21.106v38.654c0 4.142 3.357 7.5 7.5 7.5s7.5-3.358 7.5-7.5c0-47.392 0-115.226 0-162.691 0-6.028-3.465-11.249-8.5-13.812zm-38.5 13.311h31.5c.275 0 .5.224.5.5v56.068l-32-21.106zm23.5-50v35h-15v-35zm-54.946 62.5c0-6.893 5.607-12.5 12.5-12.5h3.945v84.858c-2.377-1.48-4.955-2.66-7.686-3.474l-8.76-2.609v-66.275zm9.223 107.523-8.777 2.521v-27.984l4.033 1.201c5.649 1.683 10.104 6.289 11.625 12.022 1.395 5.259-1.692 10.75-6.881 12.24zm43.124 280.977h-9.802c-1.246 0-2.285-.894-2.473-2.125l-7.404-48.875h29.556l-7.406 48.875c-.186 1.231-1.226 2.125-2.471 2.125zm-20.901-315.538v-32.031l32 21.106v32.031z" fill="#3c5a72" data-original="#000000" style="" class=""/><path d="m293.723 51.689v-39.189c0-6.893-5.607-12.5-12.5-12.5h-20c-6.893 0-12.5 5.607-12.5 12.5v37.5c-.048 0-11.349 0-12.418 0-15.163 0-27.5 12.336-27.5 27.5v71.103c-.151 3.946-.019 53.105 0 55.006 0 11.458 1.051 22.981 3.124 34.248.516 2.838 4.154 6.85 8.733 6.019 4.073-.75 6.769-4.659 6.019-8.733-1.729-9.136-2.928-21.715-2.876-32.01 4.583-1.451 12.158-3.162 16.418-5.019v126.397c0 4.142 3.357 7.5 7.5 7.5s7.5-3.358 7.5-7.5v-156.079l32 21.106v210.462h-32v-39.745c0-4.142-3.357-7.5-7.5-7.5s-7.5 3.358-7.5 7.5v44.231c0 2.373.181 4.767.537 7.116l8.26 54.52c1.148 7.575 6.908 13.321 14.203 14.604v23.774c0 4.142 3.357 7.5 7.5 7.5s7.5-3.358 7.5-7.5v-23.638c7.764-.914 14.005-6.824 15.203-14.741l8.261-54.518c.355-2.345.536-4.74.536-7.117v-218.986-50-70c0-6.027-3.465-11.248-8.5-13.811zm-38.5 13.311h31.5c.275 0 .5.224.5.5v56.068l-32-21.106zm23.5-50v35h-15v-35zm-42.418 50h3.918v85.168c-2.508-1.623-5.244-2.916-8.158-3.784l-8.26-2.46v-66.424c0-6.893 5.607-12.5 12.5-12.5zm-3.779 120.023-8.722 2.504v-27.952l3.979 1.185c5.649 1.683 10.104 6.289 11.625 12.022 1.396 5.26-1.691 10.751-6.882 12.241zm22.697-34.561v-32.031l32 21.106v32.031zm20.901 315.538h-9.802c-1.246 0-2.285-.894-2.473-2.125l-7.404-48.875h29.556l-7.406 48.875c-.186 1.231-1.226 2.125-2.471 2.125z" fill="#3c5a72" data-original="#000000" style="" class=""/><path d="m161.723 51.689v-39.189c0-6.893-5.607-12.5-12.5-12.5h-20c-6.893 0-12.5 5.607-12.5 12.5v37.5c.146 0-11.877 0-12.445 0-15.163 0-27.5 12.336-27.5 27.5v8.67c0 4.142 3.357 7.5 7.5 7.5s7.5-3.358 7.5-7.5v-8.67c0-6.893 5.607-12.5 12.5-12.5h3.945v85.15c-2.5-1.615-5.227-2.901-8.131-3.766l-8.314-2.476v-21.993c0-4.142-3.357-7.5-7.5-7.5s-7.5 3.358-7.5 7.5v81.694c0 11.458 1.051 22.981 3.124 34.248.665 3.615 3.818 6.145 7.367 6.145.45 0 .907-.041 1.366-.125 4.073-.749 6.769-4.659 6.019-8.733-1.728-9.129-2.927-21.707-2.876-31.994 4.552-1.44 12.227-3.187 16.445-5.022v206.359c0 2.373.181 4.767.537 7.116l8.26 54.52c1.148 7.575 6.908 13.321 14.203 14.604v23.773c0 4.142 3.357 7.5 7.5 7.5s7.5-3.358 7.5-7.5v-23.638c7.764-.914 14.005-6.824 15.203-14.741l8.261-54.518c.355-2.345.536-4.74.536-7.117 0-81.255 0-260.268 0-338.987 0-6.026-3.465-11.247-8.5-13.81zm-38.5 348.311v-231.568l32 21.106v210.462zm32-228.431-32-21.106v-32.031l32 21.106zm-8.5-156.569v35h-15v-35zm8 50c.275 0 .5.224.5.5v56.068l-32-21.106v-35.462zm-54.169 120.023-8.776 2.52v-27.984l4.033 1.201c5.649 1.683 10.104 6.29 11.625 12.022 1.394 5.26-1.693 10.751-6.882 12.241zm43.57 280.977h-9.802c-1.246 0-2.285-.894-2.473-2.125l-7.404-48.875h29.556l-7.406 48.875c-.186 1.231-1.226 2.125-2.471 2.125z" fill="#3c5a72" data-original="#000000" style="" class=""/></g></g></svg>
