<?xml version="1.0"?>
<svg xmlns="http://www.w3.org/2000/svg" xmlns:xlink="http://www.w3.org/1999/xlink" xmlns:svgjs="http://svgjs.com/svgjs" version="1.1" width="512" height="512" x="0" y="0" viewBox="0 0 64 64" style="enable-background:new 0 0 512 512" xml:space="preserve" class=""><g><path xmlns="http://www.w3.org/2000/svg" d="m47.268 53.792-2.92 5.755 1.783.906 2.688-5.3 11.381-1.787a1 1 0 0 0 .832-1.145l-1.81-11.376 2.14-2.137-1.413-1.416-2.5 2.5a1 1 0 0 0 -.281.865l1.732 10.889-10.9 1.711a1 1 0 0 0 -.732.535z" fill="#3c5a72" data-original="#000000" style="" class=""/><path xmlns="http://www.w3.org/2000/svg" d="m5.961 17.843-.861-5.389 10.9-1.711a1 1 0 0 0 .736-.535l3.424-6.755-1.784-.906-3.2 6.3-11.376 1.787a1 1 0 0 0 -.832 1.145l1.014 6.378z" fill="#3c5a72" data-original="#000000" style="" class=""/><path xmlns="http://www.w3.org/2000/svg" d="m4.45 19.987h2v2.025h-2z" transform="matrix(.988 -.157 .157 .988 -3.233 1.118)" fill="#3c5a72" data-original="#000000" style="" class=""/><path xmlns="http://www.w3.org/2000/svg" d="m54.949 24.543 1.5-9.434a1 1 0 0 0 -.833-1.145l-9.438-1.483-4.323-8.521a1 1 0 0 0 -.582-.5 1.012 1.012 0 0 0 -.765.061l-8.508 4.355-8.508-4.354a1 1 0 0 0 -1.347.438l-4.323 8.52-9.439 1.483a1 1 0 0 0 -.832 1.145l1.5 9.434-6.759 6.75a1 1 0 0 0 0 1.416l6.758 6.749-1.5 9.434a1 1 0 0 0 .833 1.145l9.438 1.483 4.324 8.521a1 1 0 0 0 .582.5 1.022 1.022 0 0 0 .309.048 1.01 1.01 0 0 0 .456-.109l8.508-4.355 8.508 4.354a1 1 0 0 0 1.347-.438l4.323-8.52 9.439-1.483a1 1 0 0 0 .832-1.145l-1.5-9.434 6.759-6.75a1 1 0 0 0 0-1.416zm-1.775 13.857a1 1 0 0 0 -.281.865l1.423 8.948-8.954 1.407a1 1 0 0 0 -.736.535l-4.1 8.082-8.07-4.13a1 1 0 0 0 -.912 0l-8.07 4.13-4.1-8.082a1 1 0 0 0 -.737-.535l-8.954-1.404 1.424-8.948a1 1 0 0 0 -.281-.865l-6.411-6.403 6.411-6.4a1 1 0 0 0 .281-.865l-1.423-8.951 8.954-1.407a1 1 0 0 0 .736-.535l4.1-8.082 8.07 4.13a1 1 0 0 0 .912 0l8.07-4.13 4.1 8.082a1 1 0 0 0 .737.535l8.954 1.407-1.424 8.948a1 1 0 0 0 .281.865l6.411 6.403z" fill="#3c5a72" data-original="#000000" style="" class=""/><path xmlns="http://www.w3.org/2000/svg" d="m19 36h2v2h-2z" fill="#3c5a72" data-original="#000000" style="" class=""/><path xmlns="http://www.w3.org/2000/svg" d="m45 24h-9v-5a5.006 5.006 0 0 0 -5-5 1 1 0 0 0 -.97.757l-2.43 9.728a2 2 0 0 1 -1.942 1.515h-.658v-1a1 1 0 0 0 -1-1h-8a1 1 0 0 0 -1 1v16a1 1 0 0 0 1 1h8a1 1 0 0 0 1-1v-1h2.767a20.05 20.05 0 0 0 8.705 2h4.528a3 3 0 0 0 3-3 2.967 2.967 0 0 0 -.4-1.471 2.972 2.972 0 0 0 1.181-3.645 2.961 2.961 0 0 0 1.819-4.355 2.994 2.994 0 0 0 -1.6-5.529zm-22 16h-6v-14h6zm21-8h-5v2h3a1 1 0 0 1 0 2h-4v2h3a1 1 0 0 1 0 2h-4.528a18.023 18.023 0 0 1 -8.025-1.9 1 1 0 0 0 -.447-.1h-3v-10h.658a4 4 0 0 0 3.881-3.03l2.218-8.87a3 3 0 0 1 2.243 2.9v6a1 1 0 0 0 1 1h10a1 1 0 0 1 0 2h-5v2h4a1 1 0 0 1 0 2z" fill="#3c5a72" data-original="#000000" style="" class=""/><path xmlns="http://www.w3.org/2000/svg" d="m28 45h8v2h-8z" fill="#3c5a72" data-original="#000000" style="" class=""/><path xmlns="http://www.w3.org/2000/svg" d="m25 49h14v2h-14z" fill="#3c5a72" data-original="#000000" style="" class=""/></g></svg>
