<?xml version="1.0"?>
<svg xmlns="http://www.w3.org/2000/svg" xmlns:xlink="http://www.w3.org/1999/xlink" xmlns:svgjs="http://svgjs.com/svgjs" version="1.1" width="512" height="512" x="0" y="0" viewBox="0 0 512 512" style="enable-background:new 0 0 512 512" xml:space="preserve" class=""><g><g xmlns="http://www.w3.org/2000/svg"><path d="m40 346c22.056 0 40-17.944 40-40 0-7.408-2.031-14.346-5.555-20.302l22.849-22.849c24.048 21.061 54.86 34.571 88.706 36.81v21.607c-17.233 4.452-30 20.13-30 38.734v112c0 22.056 17.944 40 40 40s40-17.944 40-40v-112c0-18.604-12.767-34.282-30-38.734v-21.607c33.846-2.239 64.658-15.749 88.706-36.81l16.849 16.849c-3.524 5.956-5.555 12.894-5.555 20.302 0 22.056 17.944 40 40 40s40-17.944 40-40c0-7.408-2.031-14.346-5.555-20.302l71.254-71.253c5.955 3.524 12.894 5.555 20.301 5.555 22.056 0 40-17.944 40-40s-17.944-40-40-40-40 17.944-40 40c0 7.408 2.031 14.346 5.555 20.302l-71.254 71.253c-5.955-3.524-12.894-5.555-20.301-5.555s-14.346 2.031-20.302 5.555l-16.85-16.849c23.119-26.398 37.152-60.942 37.152-98.706 0-82.71-67.29-150-150-150s-150 67.29-150 150c0 37.764 14.033 72.308 37.151 98.706l-22.85 22.849c-5.955-3.524-12.894-5.555-20.301-5.555-22.056 0-40 17.944-40 40s17.944 40 40 40zm176 14v112c0 11.028-8.972 20-20 20s-20-8.972-20-20v-112c0-11.028 8.972-20 20-20s20 8.972 20 20zm-20-80c-32.249 0-61.79-11.808-84.535-31.322l64.234-64.233c5.955 3.524 12.894 5.555 20.301 5.555s14.346-2.031 20.302-5.555l64.234 64.233c-22.746 19.514-52.287 31.322-84.536 31.322zm170 20c0 11.028-8.972 20-20 20s-20-8.972-20-20 8.972-20 20-20 20 8.972 20 20zm-300-150c0-71.682 58.317-130 130-130s130 58.318 130 130c0 32.249-11.808 61.789-31.322 84.535l-64.233-64.233c3.524-5.956 5.555-12.894 5.555-20.302 0-22.056-17.944-40-40-40s-40 17.944-40 40c0 7.408 2.031 14.346 5.555 20.302l-64.233 64.233c-19.514-22.746-31.322-52.286-31.322-84.535zm-26 136c11.028 0 20 8.972 20 20s-8.972 20-20 20-20-8.972-20-20 8.972-20 20-20z" fill="#3c5a72" data-original="#000000" style=""/></g></g></svg>
