<?xml version="1.0" encoding="iso-8859-1"?>
<!-- Generator: Adobe Illustrator 19.0.0, SVG Export Plug-In . SVG Version: 6.00 Build 0)  -->
<svg version="1.1" id="Capa_1" xmlns="http://www.w3.org/2000/svg" xmlns:xlink="http://www.w3.org/1999/xlink" x="0px" y="0px"
	 viewBox="0 0 512.149 512.149" style="enable-background:new 0 0 512.149 512.149;" xml:space="preserve">
<path style="fill:#656D78;" d="M496.159,375.754h-31.977c8.83,0,15.988-7.15,15.988-15.988c0-8.822-7.158-15.988-15.988-15.988
	h-31.977c8.83,0,15.988-7.151,15.988-15.988c0-8.822-7.158-15.989-15.988-15.989h-47.967c8.83,0,15.99-7.151,15.99-15.988
	c0-8.822-7.16-15.989-15.99-15.989h87.938c8.83,0,15.988-7.15,15.988-15.984c0-8.829-7.158-15.988-15.988-15.988h-39.971
	c8.83,0,15.988-7.159,15.988-15.988c0-8.83-7.158-15.989-15.988-15.989h-15.988c8.828,0,15.988-7.159,15.988-15.988
	s-7.16-15.988-15.988-15.988h79.941c8.83,0,15.99-7.159,15.99-15.989s-7.16-15.989-15.99-15.989h-31.977
	c8.83,0,15.988-7.159,15.988-15.988c0-8.83-7.158-15.989-15.988-15.989h-31.977c8.83,0,15.988-7.159,15.988-15.989
	s-7.158-15.988-15.988-15.988h-23.982c8.828,0,15.988-7.159,15.988-15.989s-7.16-15.989-15.988-15.989H168.395
	c-8.829,0-15.988,7.159-15.988,15.989s7.159,15.989,15.988,15.989h-55.96c-8.829,0-15.988,7.159-15.988,15.988
	c0,8.83,7.159,15.989,15.988,15.989H96.447c-8.83,0-15.988,7.159-15.988,15.989c0,8.829,7.158,15.988,15.988,15.988h47.966
	c-8.83,0-15.989,7.159-15.989,15.989s7.159,15.989,15.989,15.989H56.475c-8.829,0-15.988,7.159-15.988,15.988
	s7.159,15.988,15.988,15.988h39.972c-8.83,0-15.988,7.159-15.988,15.989c0,8.829,7.158,15.988,15.988,15.988H56.475
	c-8.829,0-15.988,7.159-15.988,15.988c0,8.834,7.159,15.984,15.988,15.984H40.487c-8.83,0-15.989,7.167-15.989,15.989
	c0,8.837,7.159,15.988,15.989,15.988h39.972c-8.83,0-15.989,7.167-15.989,15.989c0,8.837,7.159,15.988,15.989,15.988h-15.99
	c-8.829,0-15.988,7.166-15.988,15.988c0,8.838,7.159,15.988,15.988,15.988h79.943c-8.83,0-15.989,7.167-15.989,15.989
	c0,8.837,7.159,15.988,15.989,15.988h-31.977c-8.829,0-15.988,7.167-15.988,15.989c0,8.837,7.159,15.988,15.988,15.988h271.804
	c8.83,0,15.99-7.151,15.99-15.988c0-8.822-7.16-15.989-15.99-15.989h111.92c8.83,0,15.99-7.151,15.99-15.988
	C512.149,382.921,504.989,375.754,496.159,375.754z"/>
<path style="fill:#A0D468;" d="M427.218,423.766c0-4.396-3.598-7.994-7.994-7.994c-4.395,0-7.994,3.599-7.994,7.994
	s3.6,7.995,7.994,7.995C423.62,431.762,427.218,428.163,427.218,423.766z M407.233,399.784c19.906,0,35.973,16.066,35.973,35.974
	c0,19.83-16.066,35.975-35.973,35.975c-19.83,0-35.975-16.066-35.975-35.975C371.259,415.85,387.325,399.784,407.233,399.784z"/>
<g style="opacity:0.5;">
	<path style="fill:#FFFFFF;" d="M379.253,443.753c0-19.908,16.066-35.975,35.975-35.975c7.908,0,15.145,2.607,21.07,6.909
		c-6.535-9.002-17.066-14.903-29.064-14.903c-19.908,0-35.975,16.066-35.975,35.974c0,11.984,5.918,22.5,14.902,29.035
		C381.86,458.875,379.253,451.646,379.253,443.753z"/>
</g>
<g style="opacity:0.2;">
	<path d="M435.751,428.138c0.008,19.908-16.059,35.975-35.967,35.967c-7.916,0.008-15.152-2.607-21.07-6.901
		c6.527,9.001,17.066,14.903,29.064,14.903c19.908,0,35.975-16.066,35.975-35.975c0-11.991-5.918-22.499-14.902-29.033
		C433.151,413.016,435.759,420.246,435.751,428.138z"/>
</g>
<path style="fill:#AC92EC;" d="M117.026,127.549c1.358,1.358,2.475,2.803,3.436,4.396c-3.115,5.199-8.236,11.757-14.709,18.229
	c-6.472,6.472-13.029,11.594-18.229,14.708c-1.593-0.96-3.037-2.077-4.396-3.435c-9.353-9.353-9.353-24.545,0-33.897
	S107.673,118.196,117.026,127.549z"/>
<g style="opacity:0.3;">
	<path style="fill:#FFFFFF;" d="M91.122,135.543c7.947-7.947,20.071-9.071,29.284-3.521c0.016-0.023,0.039-0.054,0.055-0.078
		c-0.961-1.593-2.077-3.037-3.436-4.396c-9.353-9.353-24.545-9.353-33.897,0s-9.353,24.545,0,33.897
		c1.358,1.358,2.803,2.475,4.396,3.435c0.023-0.016,0.055-0.039,0.078-0.054C82.051,155.614,83.175,143.49,91.122,135.543z"/>
</g>
<path style="fill:#AC92EC;" d="M120.461,131.944c5.753,9.274,4.559,21.508-3.436,29.502s-20.228,9.189-29.502,3.435
	c5.199-3.115,11.757-8.236,18.229-14.708C112.225,143.701,117.346,137.143,120.461,131.944z"/>
<path style="fill:#FFCE54;" d="M126.316,389.431c4.724,4.638,4.638,12.227,0,16.957c-4.715,4.638-51.877,44.203-56.514,39.565
	c-4.716-4.716,34.85-51.885,39.573-56.522C114.012,384.717,121.601,384.717,126.316,389.431z"/>
<path style="fill:#FC6E51;" d="M126.316,406.388c4.638-4.73,4.724-12.319,0-16.957c-4.715-4.715-12.304-4.715-16.94,0
	c-4.724,4.638-44.289,51.807-39.573,56.522C74.439,450.592,121.601,411.026,126.316,406.388z M47.177,468.578
	c-14.068-14.067,31.173-82.097,45.249-96.087c13.99-14.068,36.771-14.068,50.839,0c14.076,14.067,14.076,36.771,0,50.839
	C129.197,437.398,61.245,482.568,47.177,468.578z"/>
<g style="opacity:0.3;">
	<path d="M143.265,372.491c-8.057-8.057-18.963-11.352-29.448-10.165c7.831,0.875,15.442,4.153,21.454,10.165
		c14.075,14.067,14.075,36.771,0,50.839c-11.43,11.429-58.404,43.375-83.175,47.466c20.626,4.044,78.318-34.616,91.169-47.466
		C157.341,409.262,157.341,386.559,143.265,372.491z"/>
</g>
<g style="opacity:0.5;">
	<path style="fill:#FFFFFF;" d="M55.171,468.578c-14.067-14.067,31.174-82.097,45.249-96.087c5.98-6.012,13.576-9.29,21.392-10.165
		c-10.485-1.187-21.376,2.108-29.386,10.165c-14.076,13.99-59.317,82.02-45.249,96.087c2.639,2.624,7.183,3.17,12.913,2.218
		C58.13,470.405,56.389,469.781,55.171,468.578z"/>
</g>
<g>
	<path style="fill:#CCD1D9;" d="M179.512,262.71l-16.948,16.949l-16.949,16.948c-0.156-16.785-48.044-25.419-48.044-25.419
		c56.515-56.526,98.891-25.427,98.891-25.427L179.512,262.71z"/>
	<path style="fill:#CCD1D9;" d="M269.925,319.31c1.678,2.232,29.58,43.813-25.419,98.805c0,0-8.635-47.639-25.342-48.045
		l5.598-5.589l16.941-16.957l16.949-16.94L269.925,319.31z"/>
</g>
<path style="fill:#656D78;" d="M145.615,330.585l39.573,39.564c0,0-11.272,11.273-31.103-8.47
	C134.341,341.857,145.615,330.585,145.615,330.585z"/>
<polygon style="fill:#AAB2BD;" points="202.137,240.086 196.461,245.761 179.512,262.71 162.564,279.659 145.615,296.607 
	139.939,302.275 139.939,324.9 145.615,330.585 185.188,370.148 190.864,375.754 213.489,375.754 219.163,370.07 224.761,364.482 
	241.702,347.525 258.651,330.585 269.925,319.31 275.6,313.635 "/>
<path style="fill:#FFCE54;" d="M275.6,313.635l-73.463-73.549l12.71-12.632c-21.984-51.085-12.07-112.4,29.736-154.128
	c54.679-54.762,143.015-54.762,197.781,0c54.758,54.68,54.758,143.097,0,197.777c-41.729,41.806-102.967,51.721-154.055,29.814
	L275.6,313.635z"/>
<g>
	<path style="fill:#3A3847;" d="M403.751,459.928c-2.209,0-4.037-1.788-4.037-3.997s1.75-3.997,3.959-3.997h0.078
		c2.209,0,3.996,1.788,3.996,3.997S405.96,459.928,403.751,459.928z"/>
	<path style="fill:#3A3847;" d="M75.985,12.248c-2.209,0-4.036-1.788-4.036-3.997s1.749-3.997,3.958-3.997h0.078
		c2.21,0,3.997,1.788,3.997,3.997C79.982,10.46,78.195,12.248,75.985,12.248z"/>
	<path style="fill:#3A3847;" d="M227.876,28.237c-2.209,0-4.036-1.788-4.036-3.997s1.749-3.998,3.958-3.998h0.078
		c2.209,0,3.997,1.788,3.997,3.998S230.085,28.237,227.876,28.237z"/>
	<path style="fill:#3A3847;" d="M4.036,108.179c-2.21,0-4.036-1.788-4.036-3.997s1.748-3.997,3.958-3.997h0.078
		c2.209,0,3.997,1.788,3.997,3.997S6.245,108.179,4.036,108.179z"/>
	<path style="fill:#3A3847;" d="M59.996,340.013c-2.21,0-4.036-1.787-4.036-3.996c0-2.21,1.748-3.998,3.958-3.998h0.078
		c2.209,0,3.997,1.788,3.997,3.998C63.993,338.227,62.205,340.013,59.996,340.013z"/>
	<path style="fill:#3A3847;" d="M259.432,507.895c-2.211,0-4.037-1.788-4.037-3.997c0-2.21,1.748-3.997,3.958-3.997h0.078
		c2.209,0,3.996,1.787,3.996,3.997C263.429,506.107,261.641,507.895,259.432,507.895z"/>
	<path style="fill:#3A3847;" d="M331.802,363.997c-2.209,0-4.035-1.788-4.035-3.997s1.748-3.997,3.957-3.997h0.078
		c2.209,0,3.998,1.788,3.998,3.997S334.011,363.997,331.802,363.997z"/>
	<path style="fill:#3A3847;" d="M467.706,340.013c-2.211,0-4.037-1.787-4.037-3.996c0-2.21,1.748-3.998,3.959-3.998h0.078
		c2.209,0,3.996,1.788,3.996,3.998C471.702,338.227,469.915,340.013,467.706,340.013z"/>
	<path style="fill:#3A3847;" d="M387.763,435.945c-2.209,0-4.037-1.787-4.037-3.996c0-2.21,1.75-3.998,3.959-3.998h0.078
		c2.209,0,3.996,1.788,3.996,3.998C391.759,434.159,389.971,435.945,387.763,435.945z"/>
	<path style="fill:#3A3847;" d="M407.507,475.917c-22.039,0-39.973-17.933-39.973-39.972s17.934-39.971,39.973-39.971
		c22.037,0,39.971,17.932,39.971,39.971S429.544,475.917,407.507,475.917z M407.507,403.969c-17.629,0-31.979,14.349-31.979,31.977
		c0,17.629,14.35,31.978,31.979,31.978c17.635,0,31.977-14.349,31.977-31.978C439.483,418.318,425.141,403.969,407.507,403.969z"/>
	<path style="fill:#3A3847;" d="M419.497,435.945c-6.611,0-11.99-5.379-11.99-11.991s5.379-11.991,11.99-11.991
		c6.613,0,11.992,5.379,11.992,11.991S426.11,435.945,419.497,435.945z M419.497,419.957c-2.201,0-3.996,1.796-3.996,3.997
		c0,2.202,1.795,3.997,3.996,3.997c2.209,0,3.998-1.795,3.998-3.997C423.495,421.753,421.706,419.957,419.497,419.957z"/>
	<path style="fill:#3A3847;" d="M307.577,467.923c-2.209,0-3.996-1.788-3.996-3.997v-31.977c0-2.21,1.787-3.998,3.996-3.998
		s3.998,1.788,3.998,3.998v31.977C311.575,466.135,309.786,467.923,307.577,467.923z"/>
	<path style="fill:#3A3847;" d="M315.571,451.934h-15.988c-2.209,0-3.998-1.788-3.998-3.997c0-2.21,1.789-3.997,3.998-3.997h15.988
		c2.209,0,3.998,1.787,3.998,3.997C319.569,450.146,317.78,451.934,315.571,451.934z"/>
	<path style="fill:#3A3847;" d="M171.674,499.9c-2.209,0-3.997-1.788-3.997-3.997v-31.978c0-2.209,1.788-3.997,3.997-3.997
		c2.21,0,3.997,1.788,3.997,3.997v31.978C175.671,498.112,173.884,499.9,171.674,499.9z"/>
	<path style="fill:#3A3847;" d="M179.668,483.913H163.68c-2.209,0-3.997-1.788-3.997-3.998c0-2.209,1.788-3.997,3.997-3.997h15.988
		c2.21,0,3.997,1.788,3.997,3.997C183.665,482.124,181.878,483.913,179.668,483.913z"/>
	<path style="fill:#3A3847;" d="M171.674,76.202c-2.209,0-3.997-1.788-3.997-3.998V40.228c0-2.21,1.788-3.997,3.997-3.997
		c2.21,0,3.997,1.787,3.997,3.997v31.977C175.671,74.415,173.884,76.202,171.674,76.202z"/>
	<path style="fill:#3A3847;" d="M179.668,60.214H163.68c-2.209,0-3.997-1.788-3.997-3.997c0-2.209,1.788-3.997,3.997-3.997h15.988
		c2.21,0,3.997,1.788,3.997,3.997S181.878,60.214,179.668,60.214z"/>
	<path style="fill:#3A3847;" d="M27.777,260.072c-2.209,0-3.997-1.788-3.997-3.997v-31.978c0-2.209,1.788-3.997,3.997-3.997
		c2.21,0,3.997,1.788,3.997,3.997v31.978C31.774,258.284,29.987,260.072,27.777,260.072z"/>
	<path style="fill:#3A3847;" d="M35.772,244.083H19.783c-2.209,0-3.997-1.788-3.997-3.997c0-2.21,1.788-3.998,3.997-3.998h15.989
		c2.209,0,3.997,1.788,3.997,3.998C39.769,242.295,37.981,244.083,35.772,244.083z"/>
	<path style="fill:#3A3847;" d="M99.726,172.134c-7.472,0-14.498-2.912-19.783-8.197s-8.197-12.312-8.197-19.786
		c0-7.472,2.912-14.498,8.197-19.779c10.563-10.57,29.003-10.57,39.565,0c5.285,5.281,8.197,12.308,8.197,19.779
		c0,7.475-2.912,14.501-8.197,19.786C114.231,169.222,107.204,172.134,99.726,172.134z M99.726,124.168
		c-5.332,0-10.353,2.081-14.131,5.855c-3.771,3.774-5.855,8.791-5.855,14.127c0,5.34,2.085,10.359,5.855,14.134
		c7.55,7.549,20.712,7.549,28.261,0c3.779-3.775,5.855-8.794,5.855-14.134c0-5.336-2.076-10.353-5.855-14.127
		C110.085,126.249,105.066,124.168,99.726,124.168z"/>
	<path style="fill:#3A3847;" d="M79.076,171.431c-1.858,0-3.498-0.551-4.786-1.843c-1.562-1.562-1.562-4.091,0-5.652
		c1.382-1.386,3.529-1.538,5.091-0.468c2.561-0.148,11.655-4.974,23.171-16.488c11.515-11.52,16.34-20.614,16.488-23.175
		c-1.07-1.557-0.914-3.708,0.468-5.094c1.562-1.561,4.091-1.561,5.652,0c8.072,8.069-12.71,29.675-16.956,33.921
		C104.636,156.2,88.827,171.431,79.076,171.431z"/>
</g>
<g style="opacity:0.6;">
	<polygon style="fill:#FFFFFF;" points="252.992,291.003 224.745,262.719 264.327,223.137 289.755,225.935 292.628,251.436 	"/>
</g>
<g style="opacity:0.6;">
	<path style="fill:#FFFFFF;" d="M319.913,161.005c0,8.841-7.168,16.008-16.014,16.008c-8.836,0-16.012-7.167-16.012-16.008
		s7.176-16.012,16.012-16.012C312.745,144.993,319.913,152.164,319.913,161.005z"/>
</g>
<g style="opacity:0.6;">
	<path style="fill:#FFFFFF;" d="M370.673,211.758c0,8.842-7.174,16.009-16.012,16.009c-8.846,0-16.012-7.167-16.012-16.009
		c0-8.841,7.166-16.012,16.012-16.012C363.499,195.746,370.673,202.917,370.673,211.758z"/>
</g>
<g style="opacity:0.5;">
	<path style="fill:#FFFFFF;" d="M189.036,241.865c-14.458-6.116-49.004-13.26-91.583,29.323c0,0,8.627,1.562,18.558,4.63
		c26.684-23.737,49.776-28.359,66.117-27.036L189.036,241.865z"/>
</g>
<g style="opacity:0.4;">
	<path style="fill:#FFFFFF;" d="M156.81,341.887l-11.305-11.303c0,0-11.272,11.272,8.471,31.095
		c2.124,2.115,4.122,3.802,6.043,5.262C147.887,350.897,156.81,341.887,156.81,341.887z"/>
</g>
<g style="opacity:0.2;">
	<path d="M174.266,359.344l11.305,11.305c0,0-11.273,11.273-31.103-8.479c-2.108-2.123-3.802-4.121-5.262-6.042
		C165.257,368.267,174.266,359.344,174.266,359.344z"/>
</g>
<g style="opacity:0.4;">
	<polygon style="fill:#FFFFFF;" points="156.81,307.913 173.759,290.964 190.707,274.014 207.657,257.065 213.325,251.397 
		202.02,240.086 196.352,245.761 179.404,262.71 162.454,279.659 145.505,296.607 139.829,302.275 139.829,324.9 145.505,330.585 
		151.134,336.206 151.134,313.581 	"/>
</g>
<g style="opacity:0.2;">
	<polygon points="207.742,358.837 224.683,341.887 241.632,324.947 258.581,307.99 264.249,302.322 275.561,313.628 
		269.886,319.296 252.937,336.251 235.988,353.193 219.047,370.141 213.371,375.824 190.746,375.816 185.071,370.148 
		179.442,364.512 202.067,364.512 	"/>
</g>
<g style="opacity:0.5;">
	<path style="fill:#FFFFFF;" d="M214.738,227.454c-2.343-67.448,4.887-95.443,46.693-137.172
		c51.838-51.916,133.873-54.523,188.928-8.006c-2.584-3.057-5.223-6.078-8.104-8.955c-54.766-54.762-143.102-54.762-197.781,0
		C202.66,115.05,192.753,176.369,214.738,227.454L214.738,227.454z"/>
</g>
<g style="opacity:0.2;">
	<path d="M288.122,300.84c67.445,2.343,95.439-4.887,137.168-46.697c51.916-51.838,54.523-133.873,8.01-188.923
		c3.053,2.58,6.074,5.223,8.955,8.104c54.758,54.762,54.758,143.097,0,197.773C400.526,312.909,339.202,322.823,288.122,300.84
		L288.122,300.84z"/>
</g>
<g style="opacity:0.2;">
	<path d="M141.891,289.012c2.186,2.318,3.591,4.832,3.614,7.596l16.949-16.948l16.949-16.949l16.948-16.949
		c0,0-2.6-1.889-7.323-3.888L141.891,289.012z"/>
</g>
<g style="opacity:0.2;">
	<path d="M226.612,373.724c-2.318-2.186-4.832-3.584-7.596-3.607l16.94-16.948l16.957-16.949l16.941-16.948
		c0,0,1.889,2.592,3.895,7.314L226.612,373.724z"/>
</g>
<g style="opacity:0.2;">
	<polygon points="275.468,313.659 201.957,240.152 207.68,234.433 281.182,307.943 	"/>
</g>
<g style="opacity:0.2;">
	<path d="M273.71,326.539c6.113,14.459,13.258,48.997-29.314,91.576c0,0-1.569-8.619-4.638-18.55
		c23.733-26.685,28.354-49.776,27.036-66.116L273.71,326.539z"/>
</g>
<g>
	<path style="fill:#3A3847;" d="M343.583,316.336c-19.119,0-38.434-3.849-56.85-11.742c-2.023-0.866-2.967-3.224-2.094-5.254
		c0.867-2.029,3.225-2.967,5.248-2.092c51.354,22.016,110.1,10.664,149.643-28.964c25.738-25.7,39.908-59.816,39.908-96.068
		c0-36.255-14.17-70.371-39.9-96.06c-25.732-25.736-59.855-39.905-96.096-39.905c-36.232,0-70.34,14.169-96.025,39.901
		c-39.667,39.585-51.011,98.352-28.901,149.721c0.874,2.03-0.063,4.38-2.093,5.254c-2.029,0.851-4.379-0.074-5.254-2.092
		c-23.405-54.399-11.397-116.628,30.596-158.54c27.191-27.234,63.306-42.239,101.677-42.239s74.51,15.001,101.748,42.243
		c27.238,27.2,42.242,63.322,42.242,101.716c0,38.391-15.004,74.514-42.242,101.721
		C417.499,301.674,380.915,316.336,343.583,316.336z"/>
	<path style="fill:#3A3847;" d="M213.489,379.753h-22.625c-1.054,0-2.061-0.422-2.811-1.156l-50.94-50.869
		c-0.749-0.75-1.171-1.765-1.171-2.826v-22.625c0-1.062,0.422-2.076,1.171-2.826l62.198-62.189c0.749-0.75,1.765-1.171,2.826-1.171
		l0,0c1.062,0,2.076,0.421,2.826,1.171l73.463,73.549c1.561,1.562,1.561,4.091,0,5.652l-62.112,62.119
		C215.565,379.331,214.55,379.753,213.489,379.753z M192.503,371.758h19.33l58.115-58.123l-67.811-67.893l-58.201,58.189v19.314
		L192.503,371.758z"/>
	<path style="fill:#3A3847;" d="M241.702,351.521c-0.921,0-1.843-0.313-2.6-0.96l-79.146-67.866
		c-1.671-1.436-1.866-3.965-0.43-5.637c1.444-1.678,3.966-1.865,5.637-0.437l79.146,67.873c1.671,1.437,1.866,3.958,0.43,5.637
		C243.95,351.053,242.826,351.521,241.702,351.521z"/>
	<path style="fill:#3A3847;" d="M258.651,334.581c-0.922,0-1.842-0.319-2.6-0.968l-79.146-67.873
		c-1.67-1.437-1.865-3.954-0.429-5.633c1.444-1.671,3.958-1.866,5.637-0.43l79.146,67.87c1.67,1.437,1.865,3.958,0.43,5.637
		C260.899,334.104,259.776,334.581,258.651,334.581z"/>
	<path style="fill:#3A3847;" d="M224.761,368.478c-0.921,0-1.85-0.32-2.607-0.969l-79.139-67.873
		c-1.679-1.437-1.866-3.958-0.43-5.637c1.437-1.67,3.959-1.857,5.637-0.43l79.139,67.874c1.679,1.437,1.866,3.958,0.43,5.637
		C227.002,368.003,225.886,368.478,224.761,368.478z"/>
	<path style="fill:#3A3847;" d="M175.945,377.409c-6.183,0-14.544-2.811-24.678-12.896c-22.313-22.406-9.056-36.186-8.479-36.755
		c1.562-1.562,4.091-1.562,5.652,0c1.546,1.545,1.562,4.043,0.047,5.605c-0.422,0.468-7.885,9.118,8.432,25.497
		c16.793,16.722,25.349,8.548,25.442,8.463c1.562-1.562,4.091-1.562,5.652,0s1.562,4.091,0,5.651
		C187.694,373.296,183.424,377.409,175.945,377.409z"/>
	<path style="fill:#3A3847;" d="M244.505,422.111c-0.398,0-0.804-0.055-1.194-0.179c-1.421-0.445-2.475-1.632-2.74-3.1
		c-3.35-18.456-12.241-44.546-21.508-44.765c-2.187-0.055-3.967-1.858-3.936-4.044c0.023-2.187,1.765-3.95,3.959-3.95
		c15.684,0.374,24.318,28.814,27.784,43.797c46.716-51.011,20.142-87.781,19.861-88.156c-0.523-0.703-0.805-1.538-0.805-2.404
		c0-2.21,1.789-4.036,3.998-4.036c1.584,0,2.959,0.897,3.605,2.225c3.615,5.48,28.824,48.427-26.199,103.442
		C246.566,421.706,245.543,422.111,244.505,422.111z"/>
	<path style="fill:#3A3847;" d="M145.615,300.605c-2.186,0-3.974-1.765-3.997-3.967c-0.086-9.29-26.224-18.174-44.757-21.516
		c-1.468-0.266-2.662-1.327-3.107-2.748s-0.063-2.967,0.991-4.013c58.279-58.279,103.63-26.146,104.082-25.825
		c1.772,1.304,2.155,3.794,0.859,5.574s-3.795,2.17-5.582,0.882c-1.562-1.136-37.856-26.383-88.281,19.814
		c15.052,3.458,43.641,12.101,43.789,27.753c0.023,2.218-1.748,4.021-3.958,4.045C145.638,300.605,145.63,300.605,145.615,300.605z"
		/>
	<path style="fill:#3A3847;" d="M202.137,244.083c-1.03,0-2.054-0.395-2.834-1.179c-1.562-1.565-1.554-4.099,0.016-5.652
		l12.71-12.632c1.562-1.565,4.091-1.55,5.652,0.016c1.553,1.565,1.545,4.099-0.016,5.652l-12.71,12.631
		C204.174,243.696,203.152,244.083,202.137,244.083z"/>
	<path style="fill:#3A3847;" d="M275.6,317.633c-1.023,0-2.047-0.391-2.826-1.171c-1.563-1.562-1.563-4.091,0-5.652l12.709-12.718
		c1.563-1.562,4.092-1.562,5.652,0s1.561,4.091,0,5.652l-12.709,12.718C277.645,317.241,276.622,317.633,275.6,317.633z"/>
	<path style="fill:#3A3847;" d="M236.027,255.434c-1.022,0-2.045-0.39-2.826-1.171c-1.562-1.561-1.562-4.091,0-5.652l28.3-28.3
		c1.561-1.562,4.09-1.562,5.652,0c1.561,1.562,1.561,4.091,0,5.652l-28.3,28.3C238.073,255.044,237.049,255.434,236.027,255.434z"/>
	<path style="fill:#3A3847;" d="M264.327,283.656c-1.023,0-2.045-0.391-2.826-1.179c-1.563-1.562-1.563-4.091,0.008-5.652
		l28.301-28.218c1.561-1.558,4.09-1.558,5.65,0.008c1.555,1.561,1.555,4.095-0.008,5.652l-28.299,28.227
		C266.372,283.266,265.348,283.656,264.327,283.656z"/>
	<path style="fill:#3A3847;" d="M289.755,229.932c-0.141,0-0.289-0.008-0.438-0.023l-25.428-2.799
		c-2.193-0.242-3.779-2.217-3.537-4.411c0.242-2.193,2.156-3.81,4.412-3.536l25.426,2.799c2.195,0.242,3.779,2.217,3.537,4.411
		C293.501,228.418,291.768,229.932,289.755,229.932z"/>
	<path style="fill:#3A3847;" d="M292.628,255.434c-2.008,0-3.74-1.507-3.975-3.548l-2.873-25.501
		c-0.25-2.194,1.328-4.173,3.521-4.423c2.201-0.23,4.176,1.331,4.426,3.524l2.873,25.502c0.25,2.193-1.326,4.172-3.521,4.422
		C292.923,255.426,292.774,255.434,292.628,255.434z"/>
	<path style="fill:#3A3847;" d="M275.843,215.622c-1.023,0-2.047-0.39-2.826-1.171c-1.563-1.561-1.563-4.091,0-5.652l39.33-39.332
		c1.563-1.561,4.092-1.561,5.652,0c1.563,1.562,1.563,4.091,0,5.652l-39.33,39.331C277.888,215.232,276.864,215.622,275.843,215.622
		z"/>
	<path style="fill:#3A3847;" d="M315.173,176.291c-1.029,0-2.061-0.398-2.842-1.19c-1.553-1.569-1.537-4.103,0.039-5.652
		c2.287-2.256,3.545-5.262,3.545-8.462c0-3.205-1.258-6.21-3.553-8.47c-4.676-4.673-12.256-4.677-16.91-0.02
		c-1.561,1.561-4.09,1.561-5.65,0c-1.563-1.562-1.563-4.095,0-5.652c7.775-7.768,20.422-7.768,28.197,0
		c3.811,3.755,5.91,8.786,5.91,14.142c0,5.355-2.107,10.383-5.926,14.154C317.204,175.908,316.188,176.291,315.173,176.291z"/>
	<path style="fill:#3A3847;" d="M292.628,176.291c-1.016,0-2.031-0.382-2.803-1.151c-3.826-3.771-5.926-8.798-5.934-14.154
		c0-5.356,2.107-10.387,5.926-14.162c1.576-1.55,4.098-1.53,5.658,0.035c1.547,1.573,1.531,4.103-0.039,5.656
		c-2.287,2.26-3.551,5.266-3.551,8.47c0.008,3.201,1.264,6.207,3.551,8.462c1.57,1.55,1.586,4.083,0.039,5.652
		C294.688,175.893,293.657,176.291,292.628,176.291z"/>
	<path style="fill:#3A3847;" d="M304.141,243.845c-1.021,0-2.045-0.391-2.826-1.171c-1.561-1.562-1.561-4.091,0-5.652l39.332-39.335
		c1.561-1.561,4.09-1.561,5.652,0c1.561,1.562,1.561,4.091,0,5.652l-39.331,39.335C306.188,243.454,305.165,243.845,304.141,243.845
		z"/>
	<path style="fill:#3A3847;" d="M366.098,227.134c-1.023,0-2.047-0.39-2.826-1.171c-1.563-1.562-1.563-4.095,0-5.652
		c2.256-2.26,3.504-5.273,3.504-8.486c0-3.208-1.248-6.222-3.504-8.486c-4.686-4.68-12.297-4.672-16.973,0
		c-1.563,1.561-4.092,1.561-5.652,0s-1.561-4.091,0-5.652c7.791-7.795,20.477-7.803,28.277,0c3.77,3.771,5.846,8.794,5.846,14.138
		c0,5.348-2.076,10.368-5.846,14.139C368.143,226.743,367.12,227.134,366.098,227.134z"/>
	<path style="fill:#3A3847;" d="M354.786,231.814c-5.348,0-10.367-2.081-14.139-5.852c-1.561-1.562-1.561-4.095,0-5.652
		c1.561-1.562,4.09-1.562,5.652,0c4.527,4.521,12.451,4.528,16.973,0c1.561-1.562,4.09-1.562,5.652,0
		c1.561,1.558,1.561,4.091,0,5.652C365.153,229.733,360.134,231.814,354.786,231.814z"/>
	<path style="fill:#3A3847;" d="M320.848,204.51c-1.014,0-2.021-0.383-2.803-1.152l-5.676-5.594
		c-1.576-1.549-1.592-4.079-0.039-5.652c1.539-1.573,4.068-1.597,5.652-0.039l5.676,5.594c1.57,1.549,1.586,4.079,0.039,5.652
		C322.917,204.111,321.888,204.51,320.848,204.51z"/>
	<path style="fill:#3A3847;" d="M70.496,450.796c-2.006,0-3.263-0.844-3.974-1.546c-0.718-0.719-1.569-1.999-1.562-4.044
		c0.047-11.328,39.121-56.155,41.158-58.154c5.887-6.004,16.496-6.065,22.578,0.023c6.175,6.176,6.19,16.301,0.023,22.578
		C128.283,410.082,82.012,450.796,70.496,450.796z M117.369,390.353c-2.124,0-4.114,0.835-5.598,2.35
		c-5.715,5.613-30.541,36.17-37.185,48.442c12.257-6.651,42.688-31.353,48.458-37.13c3.075-3.123,3.083-8.197,0-11.289
		C121.515,391.197,119.5,390.353,117.369,390.353z"/>
	<path style="fill:#3A3847;" d="M54.821,475.699c-4.692,0-8.361-1.289-10.914-3.826c-17.722-17.722,34.132-90.639,45.24-101.748
		c7.511-7.557,17.535-11.726,28.215-11.726s20.72,4.161,28.284,11.726c7.558,7.558,11.719,17.59,11.719,28.254
		c0,10.648-4.161,20.688-11.719,28.245C133.412,438.849,79.708,475.699,54.821,475.699z M117.362,366.393
		c-8.533,0-16.543,3.334-22.555,9.376C78.725,391.853,39.23,455.9,49.55,466.22c0.992,0.984,2.764,1.483,5.271,1.483
		c20.977,0,72.37-33.937,85.173-46.731c6.051-6.059,9.376-14.076,9.376-22.594c0-8.525-3.325-16.551-9.376-22.602
		C133.944,369.728,125.903,366.393,117.362,366.393z"/>
</g>
<g>
</g>
<g>
</g>
<g>
</g>
<g>
</g>
<g>
</g>
<g>
</g>
<g>
</g>
<g>
</g>
<g>
</g>
<g>
</g>
<g>
</g>
<g>
</g>
<g>
</g>
<g>
</g>
<g>
</g>
</svg>
