<?xml version="1.0" encoding="iso-8859-1"?>
<!-- Generator: Adobe Illustrator 19.0.0, SVG Export Plug-In . SVG Version: 6.00 Build 0)  -->
<svg version="1.1" id="Capa_1" xmlns="http://www.w3.org/2000/svg" xmlns:xlink="http://www.w3.org/1999/xlink" x="0px" y="0px"
	 viewBox="0 0 512.004 512.004" style="enable-background:new 0 0 512.004 512.004;" xml:space="preserve">
<path style="fill:#5C9EFF;" d="M496.002,375.775H464c8.829,0,16.002-7.157,16.002-16.002c0-8.828-7.173-16-16.002-16h-32.002
	c8.829,0,16.002-7.157,16.002-16.002c0-8.828-7.173-16-16.002-16h-48.002c8.828,0,16-7.157,16-16.002c0-8.828-7.172-16-16-16h88.005
	c8.829,0,16.001-7.157,16.001-16.002c0-8.832-7.172-15.997-16.001-15.997h-40.003c8.829,0,16.002-7.165,16.002-16.001
	s-7.173-16.001-16.002-16.001h-16c8.828,0,16-7.165,16-16.001s-7.172-16.001-16-16.001h80.004c8.829,0,16.002-7.165,16.002-16.001
	s-7.173-16.001-16.002-16.001H464c8.829,0,16.002-7.165,16.002-16.001s-7.173-16.001-16.002-16.001h-32.002
	c8.829,0,16.002-7.165,16.002-16.001s-7.173-16.001-16.002-16.001h-24.001c8.829,0,16.001-7.165,16.001-16.001
	s-7.172-16.001-16.001-16.001H167.979c-8.836,0-16.001,7.165-16.001,16.001s7.165,16.001,16.001,16.001h-56.003
	c-8.837,0-16.001,7.165-16.001,16.001s7.164,16.001,16.001,16.001H95.975c-8.837,0-16.001,7.165-16.001,16.001
	s7.164,16.001,16.001,16.001h48.003c-8.837,0-16.001,7.165-16.001,16.001s7.164,16.001,16.001,16.001H55.972
	c-8.836,0-16.001,7.165-16.001,16.001s7.165,16.001,16.001,16.001h40.003c-8.837,0-16.001,7.165-16.001,16.001
	s7.164,16.001,16.001,16.001H55.972c-8.836,0-16.001,7.165-16.001,15.997c0,8.845,7.165,16.002,16.001,16.002H39.971
	c-8.836,0-16.001,7.172-16.001,16c0,8.845,7.165,16.002,16.001,16.002h40.003c-8.837,0-16.001,7.172-16.001,16
	c0,8.845,7.164,16.002,16.001,16.002H63.973c-8.837,0-16.001,7.172-16.001,16c0,8.845,7.164,16.002,16.001,16.002h80.005
	c-8.837,0-16.001,7.172-16.001,16c0,8.845,7.164,16.002,16.001,16.002h-32.002c-8.837,0-16.001,7.172-16.001,16
	c0,8.845,7.164,16.002,16.001,16.002h272.021c8.828,0,16-7.157,16-16.002c0-8.828-7.172-16-16-16h112.005
	c8.829,0,16.002-7.157,16.002-16.002C512.004,382.947,504.831,375.775,496.002,375.775z"/>
<path style="fill:#94C1FF;" d="M416.139,399.823c19.923,0,36.002,16.079,36.002,36.002c0,19.845-16.079,36.003-36.002,36.003
	c-19.846,0-36.003-16.08-36.003-36.003S396.215,399.823,416.139,399.823z"/>
<path style="fill:#D7E9FF;" d="M388.137,443.826c0-19.924,16.079-36.002,36.002-36.002c7.922,0,15.157,2.609,21.095,6.914
	c-6.547-9.009-17.079-14.915-29.095-14.915c-19.924,0-36.003,16.079-36.003,36.002c0,11.993,5.923,22.518,14.923,29.057
	C390.746,458.96,388.137,451.725,388.137,443.826z"/>
<path style="fill:#5C9EFF;" d="M444.687,428.2c0,19.923-16.079,36.002-36.002,35.994c-7.923,0.008-15.157-2.609-21.079-6.907
	c6.531,9.009,17.079,14.916,29.08,14.916c19.923,0,36.002-16.08,36.002-36.003c0-12.001-5.923-22.517-14.907-29.056
	C442.077,413.066,444.687,420.301,444.687,428.2z"/>
<path style="fill:#94C1FF;" d="M125.706,127.377c1.36,1.359,2.478,2.805,3.438,4.398c-3.117,5.204-8.243,11.767-14.72,18.244
	c-6.478,6.477-13.04,11.602-18.243,14.719c-1.594-0.961-3.04-2.078-4.399-3.438c-9.359-9.36-9.359-24.564,0-33.924
	C101.143,118.017,116.347,118.017,125.706,127.377z"/>
<path style="fill:#D7E9FF;" d="M99.783,135.377c7.953-7.954,20.087-9.079,29.307-3.524c0.016-0.023,0.039-0.055,0.055-0.078
	c-0.961-1.594-2.078-3.039-3.438-4.398c-9.359-9.36-24.563-9.36-33.924,0c-9.359,9.36-9.359,24.564,0,33.924
	c1.359,1.359,2.806,2.477,4.399,3.438c0.023-0.016,0.055-0.039,0.078-0.055C90.704,155.465,91.829,143.331,99.783,135.377z"/>
<path style="fill:#94C1FF;" d="M129.145,131.775c5.758,9.282,4.562,21.525-3.438,29.525s-20.243,9.196-29.524,3.438
	c5.203-3.117,11.766-8.242,18.243-14.719C120.901,143.542,126.027,136.979,129.145,131.775z"/>
<path style="fill:#D7E9FF;" d="M135.008,389.463c4.727,4.642,4.641,12.235,0,16.971c-4.719,4.641-51.917,44.236-56.558,39.596
	c-4.72-4.719,34.877-51.925,39.604-56.566C122.694,384.744,130.289,384.744,135.008,389.463z"/>
<path style="fill:#94C1FF;" d="M135.008,406.434c4.641-4.735,4.727-12.329,0-16.971c-4.719-4.719-12.313-4.719-16.954,0
	c-4.727,4.642-44.323,51.848-39.604,56.566C83.091,450.67,130.289,411.074,135.008,406.434z M55.808,468.671
	c-14.079-14.079,31.197-82.161,45.284-96.162c14.001-14.079,36.799-14.079,50.878,0c14.087,14.079,14.087,36.8,0,50.878
	C137.891,437.466,69.887,482.672,55.808,468.671z"/>
<path style="fill:#5C9EFF;" d="M151.97,372.509c-8.062-8.062-18.978-11.36-29.471-10.172c7.837,0.875,15.454,4.156,21.471,10.172
	c14.087,14.079,14.087,36.8,0,50.878c-11.438,11.438-58.449,43.409-83.24,47.504c20.643,4.047,78.38-34.644,91.24-47.504
	C166.057,409.309,166.057,386.588,151.97,372.509z"/>
<path style="fill:#D7E9FF;" d="M63.809,468.671c-14.079-14.079,31.197-82.161,45.283-96.162c5.985-6.016,13.587-9.297,21.408-10.172
	c-10.493-1.188-21.393,2.109-29.408,10.172c-14.087,14.001-59.363,82.083-45.284,96.162c2.641,2.626,7.188,3.173,12.923,2.22
	C66.77,470.5,65.027,469.874,63.809,468.671z"/>
<g>
	<path style="fill:#94C1FF;" d="M188.241,262.643l-16.962,16.963l-16.958,16.961c-0.16-16.797-48.085-25.438-48.085-25.438
		c56.562-56.57,98.967-25.447,98.967-25.447L188.241,262.643z"/>
	<path style="fill:#94C1FF;" d="M278.724,319.287c1.688,2.234,29.611,43.847-25.439,98.881c0,0-8.641-47.675-25.36-48.081
		l5.602-5.594l16.958-16.97l16.958-16.954L278.724,319.287z"/>
	<path style="fill:#94C1FF;" d="M154.321,330.569l39.601,39.596c0,0-11.282,11.282-31.123-8.478
		C143.04,341.851,154.321,330.569,154.321,330.569z"/>
	<polygon style="fill:#94C1FF;" points="210.884,240.001 205.203,245.681 188.241,262.643 171.279,279.606 154.321,296.566 
		148.638,302.239 148.638,324.881 154.321,330.569 193.922,370.165 199.602,375.775 222.244,375.775 227.924,370.087 
		233.525,364.493 250.483,347.523 267.441,330.569 278.724,319.287 284.411,313.607 	"/>
</g>
<path style="fill:#D7E9FF;" d="M284.411,313.607l-73.527-73.606l12.72-12.642c-22.002-51.124-12.08-112.487,29.762-154.247
	c54.719-54.804,143.13-54.804,197.931,0c54.8,54.722,54.8,143.208,0,197.93c-41.761,41.839-103.046,51.761-154.166,29.838
	L284.411,313.607z"/>
<g>
	<polygon style="fill:#FFFFFF;" points="261.777,290.957 233.514,262.65 273.129,223.039 298.568,225.84 301.443,251.361 	"/>
	<path style="fill:#FFFFFF;" d="M328.758,160.859c0,8.848-7.18,16.021-16.032,16.021c-8.845,0-16.017-7.172-16.017-16.021
		s7.172-16.024,16.017-16.024C321.578,144.835,328.758,152.011,328.758,160.859z"/>
	<path style="fill:#FFFFFF;" d="M379.55,211.651c0,8.849-7.18,16.021-16.024,16.021s-16.024-7.172-16.024-16.021
		c0-8.848,7.181-16.024,16.024-16.024C372.37,195.627,379.55,202.803,379.55,211.651z"/>
</g>
<g>
	<path style="fill:#D7E9FF;" d="M197.777,241.782c-14.47-6.121-49.042-13.271-91.654,29.346c0,0,8.63,1.562,18.567,4.633
		c26.705-23.755,49.82-28.38,66.169-27.056L197.777,241.782z"/>
	<path style="fill:#D7E9FF;" d="M165.522,341.882l-11.313-11.312c0,0-11.281,11.281,8.478,31.118
		c2.125,2.118,4.129,3.806,6.051,5.267C156.591,350.898,165.522,341.882,165.522,341.882z"/>
</g>
<path style="fill:#5C9EFF;" d="M182.991,359.352l11.313,11.313c0,0-11.278,11.282-31.123-8.484
	c-2.109-2.126-3.809-4.126-5.266-6.048C173.976,368.282,182.991,359.352,182.991,359.352z"/>
<polygon style="fill:#D7E9FF;" points="165.525,307.88 182.483,290.918 199.445,273.956 216.407,256.994 222.08,251.322 
	210.771,240.001 205.094,245.681 188.132,262.643 171.17,279.606 154.212,296.566 148.528,302.239 148.528,324.881 154.208,330.569 
	159.846,336.194 159.842,313.553 "/>
<polygon style="fill:#5C9EFF;" points="216.493,358.844 233.451,341.882 250.413,324.928 267.379,307.958 273.051,302.286 
	284.364,313.6 278.692,319.272 261.723,336.241 244.765,353.195 227.807,370.157 222.127,375.846 199.484,375.838 193.805,370.165 
	188.171,364.524 210.814,364.524 "/>
<path style="fill:#FFFFFF;" d="M223.494,227.359c-2.341-67.5,4.891-95.518,46.729-137.278
	c51.879-51.956,133.978-54.566,189.074-8.012c-2.578-3.059-5.227-6.082-8.109-8.961c-54.801-54.804-143.212-54.804-197.931,0
	C211.411,114.868,201.492,176.235,223.494,227.359L223.494,227.359z"/>
<path style="fill:#94C1FF;" d="M296.936,300.802c67.496,2.344,95.514-4.892,137.281-46.733
	c51.957-51.878,54.566-133.977,8.009-189.07c3.055,2.582,6.087,5.227,8.962,8.11c54.8,54.804,54.8,143.208,0,197.926
	C409.427,312.881,348.056,322.803,296.936,300.802L296.936,300.802z"/>
<g>
	<path style="fill:#5C9EFF;" d="M150.595,288.965c2.188,2.32,3.59,4.836,3.617,7.602l16.958-16.961l16.962-16.963l16.962-16.961
		c0,0-2.598-1.891-7.324-3.891L150.595,288.965z"/>
	<path style="fill:#5C9EFF;" d="M235.377,373.743c-2.32-2.188-4.836-3.586-7.602-3.609l16.958-16.962l16.966-16.962l16.962-16.962
		c0,0,1.891,2.594,3.891,7.32L235.377,373.743z"/>
</g>
<rect x="198.331" y="269.94" transform="matrix(-0.7071 -0.7071 0.7071 -0.7071 233.6282 644.7446)" style="fill:#94C1FF;" width="104.029" height="8.093"/>
<path style="fill:#5C9EFF;" d="M282.513,326.522c6.118,14.47,13.274,49.035-29.338,91.646c0,0-1.57-8.625-4.641-18.563
	c23.751-26.705,28.377-49.815,27.057-66.168L282.513,326.522z"/>
<g>
	<path style="fill:#116FFF;" d="M84.634,11.987c-2.207,0-4.039-1.79-4.039-4s1.75-4,3.961-4h0.078c2.211,0,4,1.79,4,4
		S86.845,11.987,84.634,11.987z"/>
	<path style="fill:#116FFF;" d="M412.653,460.015c-2.203,0-4.039-1.789-4.039-4.001c0-2.211,1.75-4,3.961-4h0.078
		c2.212,0,4.001,1.789,4.001,4C416.654,458.226,414.865,460.015,412.653,460.015z"/>
	<path style="fill:#116FFF;" d="M236.643,27.988c-2.207,0-4.039-1.79-4.039-4s1.75-4,3.961-4h0.078c2.212,0,4.001,1.79,4.001,4
		S238.855,27.988,236.643,27.988z"/>
	<path style="fill:#116FFF;" d="M4.039,107.993c-2.207,0-4.039-1.79-4.039-4s1.75-4,3.961-4h0.078c2.211,0,4,1.79,4,4
		S6.25,107.993,4.039,107.993z"/>
	<path style="fill:#116FFF;" d="M68.633,340.007c-2.207,0-4.039-1.789-4.039-4s1.75-4,3.961-4h0.078c2.211,0,4,1.789,4,4
		S70.844,340.007,68.633,340.007z"/>
	<path style="fill:#116FFF;" d="M268.223,508.018c-2.203,0-4.039-1.789-4.039-4c0-2.212,1.75-4.001,3.961-4.001h0.078
		c2.211,0,4,1.789,4,4.001C272.223,506.229,270.434,508.018,268.223,508.018z"/>
	<path style="fill:#116FFF;" d="M340.649,364.009c-2.204,0-4.04-1.789-4.04-4.001c0-2.211,1.75-4,3.962-4h0.078c2.211,0,4,1.789,4,4
		C344.649,362.22,342.86,364.009,340.649,364.009z"/>
	<path style="fill:#116FFF;" d="M476.657,340.007c-2.203,0-4.039-1.789-4.039-4s1.75-4,3.961-4h0.078c2.212,0,4.001,1.789,4.001,4
		S478.869,340.007,476.657,340.007z"/>
	<path style="fill:#116FFF;" d="M396.652,436.013c-2.203,0-4.039-1.789-4.039-4s1.75-4,3.961-4h0.078c2.211,0,4,1.789,4,4
		S398.863,436.013,396.652,436.013z"/>
	<path style="fill:#116FFF;" d="M416.42,476.016c-22.064,0-40.003-17.946-40.003-40.003c0-22.056,17.938-40.002,40.003-40.002
		c22.048,0,40.002,17.946,40.002,40.002C456.422,458.069,438.468,476.016,416.42,476.016z M416.42,404.011
		c-17.65,0-32.002,14.36-32.002,32.002s14.352,32.002,32.002,32.002c17.641,0,32.002-14.36,32.002-32.002
		S434.061,404.011,416.42,404.011z"/>
	<path style="fill:#116FFF;" d="M428.42,436.013c-6.625,0-12-5.383-12-12.001c0-6.617,5.375-12,12-12c6.61,0,12.001,5.383,12.001,12
		C440.421,430.63,435.03,436.013,428.42,436.013z M428.42,420.012c-2.211,0-4,1.797-4,4c0,2.204,1.789,4.001,4,4.001
		c2.203,0,4-1.797,4-4.001C432.42,421.809,430.623,420.012,428.42,420.012z"/>
	<path style="fill:#116FFF;" d="M316.413,468.015c-2.219,0-4-1.789-4-4v-32.002c0-2.211,1.781-4,4-4c2.203,0,4.001,1.789,4.001,4
		v32.002C320.414,466.226,318.616,468.015,316.413,468.015z"/>
	<path style="fill:#116FFF;" d="M324.414,452.014h-16.001c-2.22,0-4.001-1.789-4.001-4s1.781-4,4.001-4h16.001c2.203,0,4,1.789,4,4
		S326.617,452.014,324.414,452.014z"/>
	<path style="fill:#116FFF;" d="M180.401,500.017c-2.211,0-4-1.789-4-4v-32.002c0-2.211,1.789-4,4-4s4,1.789,4,4v32.002
		C184.401,498.228,182.612,500.017,180.401,500.017z"/>
	<path style="fill:#116FFF;" d="M188.401,484.016H172.4c-2.211,0-4-1.789-4-4s1.789-4,4-4h16.001c2.212,0,4.001,1.789,4.001,4
		S190.613,484.016,188.401,484.016z"/>
	<path style="fill:#116FFF;" d="M180.401,75.991c-2.211,0-4-1.79-4-4V39.989c0-2.211,1.789-4,4-4s4,1.79,4,4v32.002
		C184.401,74.202,182.612,75.991,180.401,75.991z"/>
	<path style="fill:#116FFF;" d="M188.401,59.99H172.4c-2.211,0-4-1.79-4-4s1.789-4,4-4h16.001c2.212,0,4.001,1.79,4.001,4
		S190.613,59.99,188.401,59.99z"/>
	<path style="fill:#116FFF;" d="M36.393,260.002c-2.211,0-4-1.789-4-4V224c0-2.211,1.789-4,4-4s4,1.789,4,4v32.002
		C40.393,258.213,38.604,260.002,36.393,260.002z"/>
	<path style="fill:#116FFF;" d="M44.393,244.001H28.392c-2.211,0-4-1.789-4-4s1.789-4,4-4h16.001c2.212,0,4.001,1.789,4.001,4
		S46.605,244.001,44.393,244.001z"/>
	<path style="fill:#116FFF;" d="M108.397,171.997c-7.48,0-14.512-2.915-19.798-8.204c-5.289-5.289-8.203-12.321-8.203-19.802
		c0-7.477,2.914-14.509,8.203-19.794c10.571-10.579,29.025-10.579,39.597,0c5.289,5.285,8.203,12.317,8.203,19.794
		c0,7.481-2.914,14.513-8.203,19.802C122.909,169.083,115.878,171.997,108.397,171.997z M108.397,123.994
		c-5.34,0-10.363,2.082-14.141,5.859c-3.778,3.778-5.86,8.797-5.86,14.138c0,5.344,2.082,10.368,5.86,14.146
		c7.555,7.555,20.728,7.555,28.282,0c3.778-3.778,5.86-8.801,5.86-14.146c0-5.34-2.082-10.36-5.86-14.138
		C118.761,126.076,113.737,123.994,108.397,123.994z"/>
	<path style="fill:#116FFF;" d="M87.728,171.294c-1.859,0-3.496-0.551-4.789-1.844c-1.562-1.562-1.562-4.094,0-5.657
		c1.391-1.387,3.531-1.539,5.098-0.469c2.562-0.148,11.661-4.977,23.189-16.501c11.523-11.528,16.353-20.63,16.501-23.192
		c-1.074-1.559-0.918-3.711,0.469-5.098c1.562-1.563,4.094-1.563,5.656,0c8.075,8.075-12.72,29.697-16.97,33.947
		C113.312,156.051,97.486,171.294,87.728,171.294z"/>
	<path style="fill:#116FFF;" d="M352.44,316.311c-19.135,0-38.464-3.852-56.887-11.751c-2.031-0.867-2.969-3.227-2.102-5.258
		c0.867-2.032,3.227-2.97,5.258-2.095c51.378,22.033,110.179,10.673,149.76-28.985c25.751-25.721,39.932-59.863,39.932-96.143
		c0-36.284-14.181-70.426-39.932-96.135c-25.752-25.756-59.902-39.937-96.162-39.937c-36.269,0-70.396,14.181-96.107,39.933
		c-39.694,39.615-51.047,98.428-28.92,149.837c0.871,2.031-0.066,4.383-2.094,5.258c-2.043,0.852-4.388-0.074-5.259-2.094
		c-23.427-54.44-11.41-116.718,30.615-158.662c27.213-27.255,63.355-42.272,101.765-42.272c38.393,0,74.559,15.013,101.818,42.276
		c27.26,27.22,42.275,63.371,42.275,101.795c0,38.42-15.016,74.571-42.275,101.799C426.412,301.638,389.801,316.311,352.44,316.311z
		"/>
	<path style="fill:#116FFF;" d="M222.244,379.775h-22.642c-1.051,0-2.059-0.422-2.809-1.156l-50.983-50.91
		c-0.75-0.75-1.172-1.766-1.172-2.828v-22.642c0-1.062,0.422-2.078,1.172-2.828l62.246-62.238c0.75-0.75,1.766-1.172,2.828-1.172
		l0,0c1.062,0,2.078,0.422,2.828,1.172l73.528,73.606c1.562,1.562,1.562,4.094,0,5.656l-62.168,62.168
		C224.322,379.354,223.307,379.775,222.244,379.775z M201.242,371.774h19.345l58.168-58.167l-67.871-67.946l-58.246,58.234v19.329
		L201.242,371.774z"/>
	<path style="fill:#116FFF;" d="M250.483,351.523c-0.922,0-1.848-0.312-2.605-0.961l-79.204-67.918
		c-1.676-1.438-1.867-3.969-0.43-5.642c1.438-1.68,3.965-1.867,5.642-0.438l79.203,67.927c1.676,1.438,1.868,3.961,0.43,5.641
		C252.73,351.055,251.608,351.523,250.483,351.523z"/>
	<path style="fill:#116FFF;" d="M267.441,334.569c-0.922,0-1.844-0.32-2.602-0.969l-79.204-67.927
		c-1.676-1.438-1.867-3.953-0.43-5.641c1.441-1.668,3.961-1.863,5.642-0.426l79.203,67.922c1.672,1.438,1.867,3.962,0.43,5.642
		C269.691,334.093,268.566,334.569,267.441,334.569z"/>
	<path style="fill:#116FFF;" d="M233.525,368.493c-0.922,0-1.848-0.32-2.605-0.969l-79.204-67.926
		c-1.676-1.438-1.867-3.962-0.43-5.642c1.445-1.672,3.957-1.859,5.641-0.43l79.204,67.926c1.676,1.438,1.868,3.962,0.43,5.642
		C235.772,368.017,234.65,368.493,233.525,368.493z"/>
	<path style="fill:#116FFF;" d="M184.671,377.432c-6.184,0-14.556-2.812-24.696-12.907c-22.33-22.423-9.06-36.214-8.481-36.784
		c1.562-1.562,4.094-1.562,5.656,0c1.548,1.547,1.563,4.048,0.043,5.61c-0.422,0.469-7.887,9.126,8.442,25.517
		c16.806,16.736,25.369,8.556,25.459,8.47c1.562-1.562,4.094-1.562,5.656,0s1.562,4.094,0,5.656
		C196.434,373.314,192.156,377.432,184.671,377.432z"/>
	<path style="fill:#116FFF;" d="M253.284,422.168c-0.398,0-0.801-0.055-1.191-0.18c-1.422-0.445-2.477-1.633-2.746-3.102
		c-3.352-18.47-12.247-44.58-21.521-44.799c-2.188-0.055-3.969-1.86-3.941-4.048s1.77-3.953,3.961-3.953
		c15.7,0.375,24.341,28.838,27.811,43.831c46.748-51.051,20.161-87.85,19.872-88.225c-0.523-0.703-0.806-1.539-0.806-2.406
		c0-2.211,1.798-4.039,4.001-4.039c1.594,0,2.961,0.898,3.609,2.227c3.617,5.484,28.846,48.464-26.22,103.521
		C255.352,421.762,254.327,422.168,253.284,422.168z"/>
	<path style="fill:#116FFF;" d="M154.321,300.567c-2.191,0-3.98-1.766-4-3.97c-0.09-9.297-26.248-18.188-44.796-21.532
		c-1.465-0.266-2.66-1.328-3.105-2.75s-0.066-2.969,0.988-4.016c58.32-58.324,103.714-26.166,104.163-25.846
		c1.777,1.305,2.156,3.797,0.859,5.579c-1.301,1.781-3.794,2.172-5.583,0.883c-1.562-1.137-37.889-26.404-88.349,19.83
		c15.06,3.461,43.675,12.11,43.823,27.774c0.02,2.22-1.755,4.024-3.962,4.048C154.345,300.567,154.333,300.567,154.321,300.567z"/>
	<path style="fill:#116FFF;" d="M210.884,244.001c-1.027,0-2.055-0.395-2.836-1.18c-1.559-1.566-1.551-4.102,0.016-5.656
		l12.719-12.642c1.567-1.566,4.099-1.551,5.657,0.016s1.551,4.102-0.016,5.657l-12.72,12.641
		C212.923,243.614,211.903,244.001,210.884,244.001z"/>
	<path style="fill:#116FFF;" d="M284.411,317.607c-1.031,0-2.047-0.391-2.828-1.172c-1.562-1.562-1.562-4.094,0-5.656l12.72-12.728
		c1.562-1.563,4.094-1.563,5.656,0c1.562,1.562,1.562,4.094,0,5.656l-12.719,12.728
		C286.458,317.217,285.427,317.607,284.411,317.607z"/>
	<path style="fill:#116FFF;" d="M244.804,255.361c-1.023,0-2.047-0.391-2.828-1.172c-1.562-1.562-1.562-4.094,0-5.657l28.325-28.322
		c1.562-1.563,4.094-1.563,5.657,0c1.562,1.562,1.562,4.094,0,5.656l-28.326,28.322
		C246.851,254.971,245.827,255.361,244.804,255.361z"/>
	<path style="fill:#116FFF;" d="M273.129,283.606c-1.031,0-2.055-0.391-2.836-1.18c-1.555-1.562-1.555-4.094,0.008-5.657
		l28.322-28.24c1.57-1.559,4.102-1.559,5.656,0.008c1.555,1.562,1.555,4.098-0.008,5.657l-28.321,28.248
		C275.169,283.215,274.145,283.606,273.129,283.606z"/>
	<path style="fill:#116FFF;" d="M298.568,229.84c-0.141,0-0.289-0.008-0.438-0.023l-25.439-2.801
		c-2.203-0.242-3.781-2.219-3.547-4.414c0.25-2.195,2.156-3.813,4.422-3.539l25.439,2.801c2.195,0.242,3.781,2.219,3.539,4.414
		C302.318,228.324,300.584,229.84,298.568,229.84z"/>
	<path style="fill:#116FFF;" d="M301.443,255.361c-2.008,0-3.742-1.508-3.969-3.551l-2.883-25.521
		c-0.242-2.195,1.336-4.176,3.523-4.426c2.219-0.23,4.18,1.332,4.43,3.527l2.883,25.521c0.242,2.196-1.336,4.176-3.531,4.426
		C301.74,255.354,301.592,255.361,301.443,255.361z"/>
	<path style="fill:#116FFF;" d="M284.646,215.519c-1.023,0-2.047-0.391-2.828-1.172c-1.562-1.563-1.562-4.094,0-5.657l39.362-39.362
		c1.562-1.562,4.094-1.562,5.656,0s1.562,4.094,0,5.657l-39.361,39.362C286.692,215.128,285.669,215.519,284.646,215.519z"/>
	<path style="fill:#116FFF;" d="M324.008,176.157c-1.031,0-2.062-0.398-2.844-1.191c-1.547-1.57-1.531-4.106,0.039-5.657
		c2.289-2.258,3.547-5.266,3.555-8.469c0-3.207-1.266-6.215-3.562-8.477c-4.673-4.676-12.267-4.68-16.924-0.02
		c-1.562,1.562-4.094,1.562-5.656,0s-1.562-4.098,0-5.657c7.781-7.774,20.439-7.774,28.221,0c3.812,3.758,5.922,8.794,5.922,14.153
		c-0.008,5.36-2.109,10.392-5.938,14.165C326.039,175.774,325.023,176.157,324.008,176.157z"/>
	<path style="fill:#116FFF;" d="M301.443,176.157c-1.016,0-2.031-0.383-2.805-1.152c-3.82-3.773-5.93-8.805-5.93-14.165
		c0-5.359,2.102-10.395,5.922-14.173c1.578-1.551,4.109-1.531,5.664,0.035c1.555,1.574,1.539,4.106-0.039,5.661
		c-2.289,2.262-3.547,5.27-3.547,8.477c0,3.203,1.258,6.211,3.547,8.469c1.578,1.551,1.594,4.086,0.039,5.657
		C303.506,175.759,302.475,176.157,301.443,176.157z"/>
	<path style="fill:#116FFF;" d="M312.968,243.763c-1.023,0-2.047-0.391-2.828-1.172c-1.562-1.562-1.562-4.094,0-5.656l39.369-39.366
		c1.563-1.563,4.095-1.563,5.657,0c1.562,1.562,1.562,4.094,0,5.657l-39.37,39.365C315.015,243.372,313.991,243.763,312.968,243.763
		z"/>
	<path style="fill:#116FFF;" d="M374.972,227.039c-1.023,0-2.047-0.391-2.828-1.172c-1.563-1.562-1.563-4.098,0-5.656
		c2.258-2.262,3.508-5.278,3.508-8.493c0-3.211-1.25-6.227-3.508-8.492c-4.524-4.532-12.462-4.524-16.978,0
		c-1.562,1.562-4.094,1.562-5.657,0c-1.562-1.563-1.562-4.094,0-5.657c7.79-7.801,20.485-7.809,28.291,0
		c3.773,3.773,5.853,8.801,5.853,14.149c0,5.352-2.079,10.376-5.853,14.149C377.019,226.648,375.995,227.039,374.972,227.039z"/>
	<path style="fill:#116FFF;" d="M363.65,231.723c-5.344,0-10.375-2.082-14.142-5.856c-1.562-1.562-1.562-4.098,0-5.656
		c1.563-1.563,4.095-1.563,5.657,0c4.516,4.523,12.453,4.516,16.978,0c1.562-1.563,4.094-1.563,5.656,0
		c1.562,1.559,1.562,4.094,0,5.656C374.026,229.641,369.002,231.723,363.65,231.723z"/>
	<path style="fill:#116FFF;" d="M329.695,204.398c-1.016,0-2.031-0.383-2.812-1.152l-5.68-5.598
		c-1.57-1.551-1.586-4.083-0.039-5.657s4.078-1.598,5.656-0.039l5.68,5.598c1.57,1.551,1.586,4.082,0.039,5.657
		C331.758,203.999,330.727,204.398,329.695,204.398z"/>
	<path style="fill:#116FFF;" d="M79.142,450.873c-2.005,0-3.267-0.844-3.974-1.547c-0.719-0.719-1.57-2-1.562-4.047
		c0.047-11.337,39.151-56.199,41.187-58.199c5.895-6.008,16.509-6.07,22.595,0.023c6.185,6.18,6.196,16.313,0.023,22.596
		C136.977,410.129,90.669,450.873,79.142,450.873z M126.051,390.385c-2.126,0-4.114,0.836-5.603,2.352
		c-5.715,5.618-30.561,36.198-37.209,48.48c12.263-6.657,42.718-31.377,48.491-37.159c3.078-3.125,3.09-8.203,0-11.298
		C130.203,391.229,128.184,390.385,126.051,390.385z"/>
	<path style="fill:#116FFF;" d="M63.453,475.797c-4.696,0-8.368-1.289-10.919-3.828c-17.735-17.737,34.155-90.709,45.273-101.827
		c7.52-7.562,17.552-11.735,28.24-11.735c10.684,0,20.735,4.165,28.302,11.735c7.567,7.563,11.731,17.603,11.731,28.275
		c0,10.657-4.164,20.704-11.731,28.268C142.106,438.92,88.364,475.797,63.453,475.797z M126.047,366.407
		c-8.544,0-16.561,3.336-22.576,9.384c-16.095,16.094-55.616,80.191-45.288,90.521c0.988,0.984,2.766,1.484,5.271,1.484
		c20.997,0,72.426-33.963,85.239-46.769c6.055-6.062,9.388-14.086,9.388-22.61c0-8.532-3.333-16.563-9.388-22.618
		C142.638,369.743,134.594,366.407,126.047,366.407z"/>
</g>
<g>
</g>
<g>
</g>
<g>
</g>
<g>
</g>
<g>
</g>
<g>
</g>
<g>
</g>
<g>
</g>
<g>
</g>
<g>
</g>
<g>
</g>
<g>
</g>
<g>
</g>
<g>
</g>
<g>
</g>
</svg>
