<?xml version="1.0"?>
<svg xmlns="http://www.w3.org/2000/svg" xmlns:xlink="http://www.w3.org/1999/xlink" xmlns:svgjs="http://svgjs.com/svgjs" version="1.1" width="512" height="512" x="0" y="0" viewBox="0 0 74 74" style="enable-background:new 0 0 512 512" xml:space="preserve" class=""><g><path xmlns="http://www.w3.org/2000/svg" d="m27.415 64.761a1 1 0 0 1 -.606-.2l-24.415-18.617a1 1 0 0 1 -.189-1.4l25.709-33.726a1 1 0 0 1 .7-.389l12.724-1.186a1 1 0 0 1 .7.2l9.462 7.217a1 1 0 0 1 .378.621l2.226 12.582a1 1 0 0 1 -.189.781l-25.705 33.724a.993.993 0 0 1 -.661.384 1.017 1.017 0 0 1 -.134.009zm-23.015-19.802 22.825 17.4 24.837-32.579-2.082-11.766-8.845-6.743-11.9 1.108z" fill="#3c5a72" data-original="#000000" style=""/><path xmlns="http://www.w3.org/2000/svg" d="m40.456 25.722a4.4 4.4 0 1 1 2.671-7.891 4.395 4.395 0 0 1 -2.671 7.891zm.011-6.792a2.523 2.523 0 0 0 -.325.022 2.4 2.4 0 1 0 1.772.469 2.381 2.381 0 0 0 -1.447-.491z" fill="#3c5a72" data-original="#000000" style=""/><path xmlns="http://www.w3.org/2000/svg" d="m39.934 35.763a1 1 0 0 1 -.606-.2l-12.289-9.374a1 1 0 0 1 1.213-1.59l12.289 9.368a1 1 0 0 1 -.607 1.8z" fill="#3c5a72" data-original="#000000" style=""/><path xmlns="http://www.w3.org/2000/svg" d="m34.5 38.642a1 1 0 0 1 -.6-.2l-10.246-7.812a1 1 0 0 1 1.213-1.59l10.241 7.807a1 1 0 0 1 -.607 1.8z" fill="#3c5a72" data-original="#000000" style=""/><path xmlns="http://www.w3.org/2000/svg" d="m31.115 43.083a1 1 0 0 1 -.6-.2l-10.246-7.812a1 1 0 0 1 1.212-1.591l10.242 7.807a1 1 0 0 1 -.608 1.8z" fill="#3c5a72" data-original="#000000" style=""/><path xmlns="http://www.w3.org/2000/svg" d="m27.73 47.523a1 1 0 0 1 -.605-.2l-10.241-7.811a1 1 0 0 1 1.216-1.591l10.241 7.807a1 1 0 0 1 -.608 1.8z" fill="#3c5a72" data-original="#000000" style=""/><path xmlns="http://www.w3.org/2000/svg" d="m26.393 53.525a1.006 1.006 0 0 1 -.606-.2l-12.287-9.373a1 1 0 0 1 1.213-1.591l12.287 9.369a1 1 0 0 1 -.607 1.8z" fill="#3c5a72" data-original="#000000" style=""/><path xmlns="http://www.w3.org/2000/svg" d="m68.315 24.159a8.24 8.24 0 0 1 -6.3-2.932 26.651 26.651 0 0 0 -4.213-4.01l-2.945-2.244a6.276 6.276 0 0 0 -8.443.8l-3.147 3.518a1 1 0 0 1 -1.491-1.334l3.148-3.518a8.289 8.289 0 0 1 11.146-1.059l2.945 2.244a28.74 28.74 0 0 1 4.529 4.311 6.238 6.238 0 0 0 7.087 1.776 1 1 0 0 1 .74 1.858 8.247 8.247 0 0 1 -3.056.59z" fill="#3c5a72" data-original="#000000" style=""/></g></svg>
